<?xml version="1.0" standalone="no"?>
<!DOCTYPE svg PUBLIC "-//W3C//DTD SVG 20010904//EN"
 "http://www.w3.org/TR/2001/REC-SVG-20010904/DTD/svg10.dtd">
<svg version="1.0" xmlns="http://www.w3.org/2000/svg"
 width="700.000000pt" height="700.000000pt" viewBox="0 0 700.000000 700.000000"
 preserveAspectRatio="xMidYMid meet">
<metadata>
Created by potrace 1.14, written by Peter Selinger 2001-2017
</metadata>
<g transform="translate(0.000000,700.000000) scale(0.100000,-0.100000)"
fill="#000000" stroke="none">
<path d="M3340 6860 c-9 -6 -10 -10 -3 -10 6 0 15 5 18 10 8 12 4 12 -15 0z"/>
<path d="M3575 6860 c-3 -5 -1 -10 4 -10 6 0 11 5 11 10 0 6 -2 10 -4 10 -3 0
-8 -4 -11 -10z"/>
<path d="M3617 6864 c-3 -3 -4 -11 -1 -18 3 -9 -13 -13 -61 -13 -35 0 -63 3
-60 6 2 4 -2 8 -10 8 -8 0 -12 -4 -9 -9 3 -4 -2 -8 -10 -8 -9 0 -16 6 -16 13
0 9 -2 9 -8 1 -8 -14 -110 -13 -131 0 -10 6 -12 5 -7 -2 10 -16 -7 -15 -23 1
-8 6 -11 7 -8 1 4 -7 -8 -11 -34 -11 -32 0 -39 3 -34 16 3 10 0 9 -10 -4 -14
-17 -17 -18 -25 -5 -5 8 -10 10 -10 4 0 -6 -11 -11 -25 -11 -15 0 -22 4 -18
11 3 6 0 6 -8 -1 -15 -15 -33 -17 -24 -4 3 5 1 13 -5 16 -6 4 -9 1 -8 -7 2
-10 -15 -13 -69 -14 -40 -1 -71 2 -68 6 2 3 -2 7 -10 7 -8 0 -12 -4 -9 -9 3
-4 -2 -8 -10 -8 -9 0 -16 5 -16 10 0 6 -5 10 -11 10 -5 0 -7 -4 -4 -10 9 -14
-8 -13 -23 2 -9 9 -15 9 -24 0 -16 -16 -31 -15 -22 1 5 7 1 7 -10 -2 -15 -13
-19 -13 -27 0 -6 10 -9 10 -9 2 0 -7 -7 -13 -16 -13 -9 0 -12 5 -8 13 6 10 4
10 -7 0 -7 -7 -17 -13 -22 -13 -4 0 -5 6 -1 13 6 10 4 10 -7 0 -16 -16 -33
-17 -23 -1 5 8 3 8 -7 2 -15 -10 -46 -12 -226 -13 -64 -1 -114 -4 -111 -7 8
-7 -55 -72 -64 -67 -5 2 -8 0 -8 -6 0 -5 -21 -30 -47 -55 -27 -26 -69 -67 -94
-93 -31 -30 -51 -43 -59 -38 -9 6 -11 4 -5 -4 8 -14 -53 -83 -67 -75 -4 3 -8
-1 -8 -9 0 -18 -34 -49 -44 -40 -4 5 -6 3 -4 -3 4 -13 -113 -134 -124 -128 -5
3 -7 1 -6 -4 3 -11 -150 -162 -164 -162 -5 0 -6 -5 -2 -12 5 -8 2 -9 -9 -5
-10 4 -16 2 -14 -6 1 -7 -4 -11 -11 -9 -6 1 -11 -3 -10 -10 2 -7 -2 -12 -9
-13 -6 0 -15 -4 -20 -9 -5 -5 -3 -6 5 -2 20 12 14 -5 -10 -26 -13 -11 -40 -35
-60 -54 -37 -34 -55 -44 -42 -23 4 7 -2 7 -17 -1 -34 -18 -38 -24 -11 -16 26
9 28 1 6 -21 -12 -13 -18 -13 -24 -4 -5 10 -9 9 -13 -4 -4 -9 -3 -13 3 -10 25
15 6 -16 -26 -44 -31 -27 -38 -30 -52 -19 -15 12 -16 11 -3 -4 7 -10 17 -15
22 -12 14 8 11 -110 -3 -125 -7 -8 -8 -11 -2 -8 14 8 18 -79 4 -88 -5 -3 -10
-12 -10 -18 0 -7 4 -6 10 3 7 11 10 5 10 -23 0 -23 -4 -36 -10 -32 -5 3 -10 1
-10 -4 0 -6 4 -11 8 -11 4 0 9 -15 10 -32 2 -24 0 -29 -8 -18 -7 12 -11 12
-20 2 -5 -6 -7 -10 -4 -7 7 4 34 -19 34 -30 0 -3 -8 -4 -19 0 -11 3 -24 -1
-32 -12 -13 -16 -12 -17 2 -5 9 7 24 10 33 6 20 -8 21 -50 1 -58 -8 -3 -15
-11 -14 -18 0 -10 2 -10 6 0 7 19 19 14 20 -8 1 -13 -2 -18 -10 -14 -8 5 -8 3
1 -7 15 -16 16 -29 1 -29 -5 0 -7 5 -3 11 4 8 0 8 -15 0 -11 -7 -21 -14 -21
-17 0 -3 4 -3 9 0 20 13 36 -6 37 -44 1 -22 -2 -37 -6 -35 -4 2 -7 -2 -7 -10
0 -8 4 -12 7 -10 4 3 7 -20 7 -49 -1 -35 -5 -52 -12 -48 -5 3 -3 -3 5 -13 14
-17 13 -18 -2 -12 -12 4 -15 2 -11 -8 3 -8 9 -12 14 -9 5 3 9 -4 9 -15 0 -12
-6 -21 -12 -21 -8 0 -9 -3 -3 -8 16 -11 17 -33 3 -50 -10 -12 -10 -14 0 -8 7
4 12 1 12 -8 0 -10 -6 -13 -17 -10 -15 5 -16 4 -3 -5 18 -12 24 -84 6 -74 -6
4 -4 -2 4 -12 14 -17 13 -18 -2 -12 -12 4 -15 2 -11 -8 3 -8 9 -12 14 -9 5 3
9 -4 9 -15 0 -12 -6 -21 -12 -21 -8 0 -9 -3 -3 -8 16 -11 17 -33 3 -50 -10
-12 -10 -14 0 -8 7 4 12 1 12 -8 0 -10 -6 -13 -17 -10 -15 5 -16 4 -3 -5 18
-12 24 -84 6 -74 -6 4 -4 -2 4 -12 14 -17 13 -18 -2 -12 -12 4 -15 2 -11 -8 3
-8 9 -12 14 -9 5 3 9 -4 9 -15 0 -12 -6 -21 -12 -21 -8 0 -9 -3 -3 -8 16 -11
17 -33 3 -50 -10 -12 -10 -14 0 -8 7 4 12 1 12 -8 0 -10 -6 -13 -17 -10 -15 5
-16 4 -3 -5 18 -12 24 -84 6 -74 -6 4 -4 -2 4 -12 14 -17 13 -18 -2 -12 -12 4
-15 2 -11 -8 3 -8 9 -12 14 -9 5 3 9 -4 9 -15 0 -12 -6 -21 -12 -21 -8 0 -9
-3 -3 -8 16 -11 17 -33 3 -50 -10 -12 -10 -14 0 -8 7 4 12 1 12 -8 0 -10 -6
-13 -17 -10 -15 5 -16 4 -3 -5 18 -12 24 -84 6 -74 -6 4 -4 -2 4 -12 14 -17
13 -18 -2 -12 -12 4 -15 2 -11 -8 3 -8 9 -12 14 -9 5 3 9 -4 9 -15 0 -12 -6
-21 -12 -21 -8 0 -9 -3 -3 -8 16 -11 17 -33 3 -50 -10 -12 -10 -14 0 -8 7 4
12 1 12 -8 0 -10 -6 -13 -17 -10 -15 5 -16 4 -3 -5 18 -12 24 -84 6 -74 -6 4
-4 -2 4 -12 14 -17 13 -18 -2 -12 -12 4 -15 2 -11 -8 3 -8 9 -12 14 -9 5 3 9
-4 9 -15 0 -12 -6 -21 -12 -21 -8 0 -9 -3 -3 -8 16 -11 17 -33 3 -50 -10 -12
-10 -14 0 -8 7 4 12 1 12 -8 0 -10 -6 -13 -17 -10 -15 5 -16 4 -3 -5 18 -12
24 -84 6 -74 -6 4 -4 -2 4 -12 14 -17 13 -18 -2 -12 -12 4 -15 2 -11 -8 3 -8
9 -12 14 -9 5 3 9 -4 9 -15 0 -12 -6 -21 -12 -21 -8 0 -9 -3 -3 -8 16 -11 17
-33 3 -50 -10 -12 -10 -14 0 -8 7 4 12 1 12 -8 0 -10 -6 -13 -17 -10 -15 5
-16 4 -3 -5 18 -12 24 -84 6 -74 -6 4 -4 -2 4 -12 14 -17 13 -18 -2 -12 -12 4
-15 2 -11 -8 3 -8 9 -12 14 -9 5 3 9 -4 9 -15 0 -12 -6 -21 -12 -21 -8 0 -9
-3 -3 -8 16 -11 17 -33 3 -50 -10 -12 -10 -14 -1 -8 8 4 13 1 13 -8 0 -10 -6
-13 -17 -10 -15 5 -16 4 -3 -5 14 -10 25 -85 10 -76 -3 2 -7 -2 -7 -10 0 -8 4
-12 9 -9 4 3 8 -2 8 -11 0 -13 -4 -14 -23 -4 -12 6 -19 8 -15 4 4 -5 2 -15 -5
-24 -10 -14 -10 -14 5 -3 24 19 34 9 36 -33 1 -33 0 -35 -21 -24 -12 7 -19 8
-15 4 4 -5 2 -15 -5 -24 -10 -14 -10 -14 5 -3 24 19 34 9 36 -33 1 -33 0 -35
-21 -24 -12 7 -19 8 -15 4 4 -5 2 -15 -5 -24 -10 -14 -10 -14 5 -3 24 19 34 9
36 -33 1 -33 0 -35 -21 -24 -12 7 -19 8 -15 4 4 -5 2 -15 -5 -24 -10 -14 -10
-14 5 -3 24 19 34 9 36 -33 1 -33 0 -35 -21 -24 -12 7 -19 8 -15 4 4 -5 2 -15
-5 -24 -10 -14 -10 -14 5 -3 24 19 34 9 36 -33 1 -33 0 -35 -21 -24 -12 7 -19
8 -15 4 4 -5 2 -15 -5 -24 -10 -14 -10 -14 5 -3 24 19 34 9 36 -33 1 -33 0
-35 -21 -24 -12 7 -19 8 -15 4 4 -5 2 -15 -5 -24 -10 -14 -10 -14 5 -3 24 19
34 9 36 -33 1 -33 0 -35 -21 -24 -12 7 -19 8 -15 4 4 -5 2 -15 -5 -24 -10 -14
-10 -14 5 -3 24 19 34 9 36 -33 1 -33 0 -35 -21 -24 -12 7 -19 8 -15 4 4 -5 2
-15 -5 -24 -10 -14 -10 -14 5 -3 24 19 34 9 36 -33 1 -33 0 -35 -21 -24 -12 7
-19 8 -15 4 4 -5 2 -15 -5 -24 -10 -14 -10 -14 5 -3 24 19 34 9 36 -33 1 -33
0 -35 -21 -24 -12 7 -19 8 -15 4 4 -5 2 -15 -5 -24 -10 -14 -10 -14 5 -3 24
19 34 9 36 -33 1 -33 0 -35 -21 -24 -12 7 -19 8 -15 4 4 -5 2 -15 -5 -24 -10
-14 -10 -14 5 -3 9 8 21 11 26 8 11 -7 10 -86 -2 -105 -6 -10 -5 -12 2 -7 7 4
12 2 12 -3 0 -6 -6 -11 -12 -11 -9 0 -10 -3 -2 -8 15 -10 15 -212 0 -212 -6 0
-5 -4 3 -9 9 -6 10 -11 2 -15 -6 -4 -11 -13 -11 -19 0 -8 3 -8 9 1 5 9 9 -5
10 -38 0 -38 -2 -49 -12 -44 -8 5 -7 2 2 -9 7 -9 11 -30 9 -47 -3 -16 0 -30 5
-30 5 0 4 -6 -2 -13 -6 -8 -9 -16 -6 -18 2 -3 5 -33 6 -67 1 -34 6 -62 10 -62
5 0 9 -9 9 -19 0 -11 5 -23 11 -26 6 -5 5 -11 -5 -18 -11 -9 -13 -16 -6 -27 5
-8 10 -11 10 -6 0 5 7 3 15 -4 8 -7 13 -16 10 -20 -3 -5 -1 -11 5 -15 5 -3 10
-10 10 -15 0 -5 -11 2 -25 15 -13 14 -30 25 -37 24 -10 0 -10 -2 0 -6 6 -2 9
-10 6 -15 -4 -6 -2 -8 3 -5 6 4 17 -1 24 -10 12 -15 12 -16 -4 -10 -11 4 -25
-1 -36 -12 -11 -11 -23 -16 -27 -13 -4 4 -4 1 1 -7 7 -12 10 -11 20 2 10 14
14 11 25 -26 7 -23 19 -52 26 -64 9 -14 10 -24 4 -28 -6 -4 -8 -11 -4 -16 3
-5 11 -6 17 -2 7 4 6 0 -2 -10 -14 -18 -26 -23 -16 -8 3 6 -4 15 -15 21 -15 8
-18 15 -11 28 13 25 0 44 -17 26 -9 -9 -9 -14 -2 -14 7 0 10 -6 7 -12 -2 -7
-9 -13 -14 -13 -6 0 -15 -3 -19 -7 -3 -4 3 -6 15 -3 14 3 26 -4 37 -21 12 -18
22 -23 38 -19 15 5 17 4 7 -3 -11 -8 -11 -10 0 -14 9 -3 8 -6 -5 -11 -11 -5
-15 -3 -10 5 4 6 3 8 -4 4 -6 -3 -17 3 -25 15 -13 17 -18 19 -34 9 -14 -9 -14
-10 -1 -6 9 2 23 -3 32 -13 21 -23 21 -37 -1 -20 -15 13 -15 12 -2 -8 7 -13
20 -25 28 -28 11 -4 12 -3 1 10 -8 10 -9 15 -1 15 6 0 11 -3 12 -7 0 -5 2 -16
4 -26 3 -14 -1 -16 -16 -12 -10 4 -19 3 -19 -2 0 -5 9 -9 20 -10 21 -2 44 29
32 42 -4 5 -1 5 6 1 8 -5 9 -13 2 -26 -14 -26 -13 -29 10 -25 23 4 26 -5 8
-23 -9 -9 -9 -12 1 -12 8 0 11 -6 7 -16 -5 -12 -2 -15 11 -10 16 5 15 4 -1 -9
-18 -13 -18 -15 -2 -21 14 -5 15 -9 4 -15 -10 -7 -9 -9 4 -9 9 0 18 6 21 13 2
6 4 0 3 -15 -1 -16 -5 -23 -10 -18 -6 6 -15 3 -23 -8 -14 -16 -14 -16 -9 1 3
11 3 24 -1 30 -4 7 -8 26 -8 42 0 21 -5 30 -16 29 -9 -1 -16 4 -16 11 0 7 6
11 14 8 7 -3 13 -1 13 3 0 5 -17 9 -37 10 -21 0 -32 -1 -25 -3 6 -3 10 -9 7
-14 -4 -5 0 -6 8 -3 17 6 18 -26 2 -39 -6 -5 -3 -7 7 -4 9 3 22 -1 28 -9 7 -8
9 -14 5 -14 -4 0 -2 -7 5 -15 11 -13 10 -14 -4 -9 -9 3 -16 1 -16 -6 0 -6 5
-8 10 -5 15 9 12 -11 -3 -24 -8 -6 -18 -7 -22 -3 -5 4 -5 1 -1 -6 6 -10 11
-10 21 -2 17 14 31 7 46 -22 10 -18 9 -20 -5 -15 -9 4 -16 2 -16 -3 0 -6 9
-10 21 -10 11 0 18 -4 14 -9 -3 -5 -1 -12 5 -16 6 -3 8 -16 6 -29 -4 -20 0
-22 33 -22 24 1 35 -3 34 -11 -2 -7 2 -13 9 -13 6 0 8 -3 5 -7 -4 -3 -3 -11 1
-18 4 -6 -1 -2 -10 8 -10 11 -16 23 -13 28 7 11 -55 3 -67 -9 -6 -6 2 -8 21
-6 16 2 33 -2 37 -8 4 -6 3 -8 -4 -4 -6 3 -14 1 -18 -5 -4 -8 -3 -9 4 -5 7 4
12 2 12 -4 0 -6 4 -9 9 -6 5 3 14 -1 21 -9 7 -8 15 -13 19 -11 4 3 8 -3 9 -12
1 -9 3 -32 6 -50 4 -34 -7 -51 -21 -30 -10 17 -11 58 -1 52 11 -7 10 8 -2 26
-9 13 -10 13 -10 0 0 -13 -2 -13 -9 0 -6 8 -7 18 -4 24 3 5 1 6 -5 2 -9 -5 -8
-15 3 -36 17 -32 19 -44 7 -36 -4 2 -14 0 -22 -6 -12 -8 -12 -9 2 -5 23 8 28
-14 9 -33 -9 -8 -12 -12 -7 -7 16 11 28 8 20 -5 -5 -9 -2 -9 9 1 9 7 17 10 17
7 0 -4 9 -2 21 4 19 10 20 10 10 -9 -13 -24 -14 -34 -2 -27 4 3 16 -1 26 -8
14 -10 15 -15 5 -21 -8 -5 -11 -4 -7 2 4 6 0 14 -9 17 -12 5 -14 1 -9 -17 5
-18 4 -19 -5 -7 -9 12 -10 10 -4 -10 6 -23 6 -24 -12 -10 -18 14 -18 14 -4 -5
8 -11 21 -24 29 -29 11 -7 9 -12 -9 -26 l-24 -18 33 4 c29 3 32 2 21 -12 -7
-8 -19 -13 -27 -10 -7 3 -13 1 -13 -4 0 -13 27 -13 35 0 3 5 13 7 23 4 14 -5
15 -4 2 5 -8 6 -10 11 -5 11 6 0 2 7 -8 14 -16 12 -15 14 9 14 14 0 21 -4 15
-7 -8 -5 -7 -13 3 -27 10 -13 11 -23 4 -31 -13 -16 4 -17 19 -2 8 8 13 8 18 0
3 -6 1 -10 -6 -9 -19 5 -22 -20 -2 -25 17 -5 17 -5 0 -6 -10 0 -16 -5 -12 -10
3 -5 1 -12 -4 -16 -6 -3 -8 4 -6 15 3 13 0 18 -7 14 -7 -4 -8 -2 -4 5 4 6 0
14 -9 17 -13 6 -14 8 -3 15 10 7 9 9 -4 9 -26 0 -31 -18 -7 -25 11 -4 18 -9
15 -12 -3 -4 0 -13 7 -21 10 -13 9 -15 -5 -9 -10 3 -20 1 -24 -5 -4 -7 -3 -8
4 -4 7 4 24 -5 39 -20 l26 -26 -24 -15 c-23 -13 -23 -14 -1 -8 13 4 22 2 22
-4 0 -6 -8 -11 -17 -12 -12 0 -8 -4 9 -10 17 -7 25 -15 21 -25 -3 -7 -10 -11
-16 -7 -6 4 -7 1 -2 -7 6 -10 12 -7 25 10 l18 23 0 -26 c-1 -15 -4 -25 -8 -22
-3 2 -7 -3 -7 -11 0 -12 4 -11 20 4 15 16 17 23 8 41 -7 11 -15 20 -19 20 -26
-4 -32 2 -22 20 7 14 7 22 -1 26 -6 4 -8 14 -5 22 3 8 2 12 -3 9 -5 -4 -7 3
-4 14 8 32 22 23 18 -11 -4 -26 -2 -29 10 -19 11 9 15 9 15 1 0 -6 -5 -11 -11
-11 -5 0 -7 -5 -4 -10 4 -6 10 -8 15 -5 5 3 11 1 14 -4 4 -5 2 -12 -4 -16 -6
-4 -8 -11 -4 -16 3 -5 10 -7 15 -4 5 3 6 -2 2 -11 -5 -13 -3 -15 7 -9 9 5 11
4 6 -3 -4 -7 -1 -12 6 -12 7 0 0 -11 -16 -24 l-30 -23 25 -12 c21 -11 22 -10
7 2 -10 8 -15 17 -11 20 12 13 21 7 32 -20 l11 -28 -6 30 -6 30 24 -23 c14
-12 28 -22 33 -22 5 0 0 7 -11 15 -22 17 -12 20 17 4 11 -5 16 -15 13 -21 -4
-7 -2 -8 5 -4 9 6 9 11 1 21 -6 7 -7 21 -4 31 6 17 5 17 -9 -1 -9 -11 -17 -15
-17 -8 0 6 13 23 30 36 19 16 25 27 17 30 -9 4 -9 6 1 6 7 1 10 6 6 13 -4 6
-3 8 4 4 6 -3 13 -2 17 4 3 5 0 10 -7 10 -9 1 -7 5 4 14 10 7 15 16 11 19 -3
4 -2 7 4 7 6 0 14 -7 17 -16 4 -10 2 -13 -6 -8 -7 5 -8 3 -3 -6 5 -8 4 -11 -2
-7 -5 3 -10 0 -10 -7 0 -7 9 -18 19 -25 10 -6 18 -7 18 -2 0 5 -6 11 -12 14
-7 2 -10 8 -6 12 4 4 15 2 25 -6 16 -13 16 -13 0 11 -9 13 -17 32 -17 42 0 12
-5 16 -17 12 -12 -4 -14 -3 -6 3 7 5 14 18 16 28 2 11 8 30 15 41 6 12 10 23
9 25 -1 2 0 3 2 2 2 -2 10 5 17 15 8 11 9 21 2 29 -7 9 -4 11 11 8 12 -2 26
-7 31 -10 6 -3 10 -1 10 5 0 6 5 8 10 5 6 -3 10 -1 10 5 0 7 -8 9 -19 5 -11
-3 -23 0 -27 6 -4 8 -3 9 4 5 7 -4 12 -3 12 3 0 5 -8 15 -17 20 -16 9 -14 11
15 11 4 0 8 -4 8 -10 3 -21 4 -22 19 -10 9 7 14 22 13 33 -2 11 3 22 11 25 8
3 11 0 7 -6 -3 -6 -2 -13 3 -16 5 -4 8 2 7 11 -2 9 -8 19 -14 21 -22 7 -12 19
14 16 28 -3 42 19 25 40 -6 7 -8 16 -4 19 3 4 0 14 -8 24 -12 15 -12 16 3 10
10 -3 20 -1 24 6 4 7 4 9 -1 5 -4 -4 -14 4 -21 18 -11 21 -11 29 7 60 10 19
17 40 14 45 -4 5 1 12 9 15 9 3 13 10 10 15 -3 5 -10 7 -15 4 -5 -4 -9 -1 -9
4 0 16 16 13 30 -4 10 -12 9 -16 -5 -21 -17 -7 -17 -8 1 -21 17 -13 17 -14 -8
-17 -7 -1 -13 -12 -13 -26 0 -15 -5 -24 -12 -23 -7 2 -13 -2 -13 -7 0 -14 13
-13 28 2 7 7 12 8 12 2 0 -5 -5 -15 -12 -22 -9 -9 -9 -12 -1 -12 17 0 27 40
14 53 -18 18 -13 31 6 16 10 -8 14 -9 10 -2 -4 6 0 16 9 21 15 8 15 10 0 15
-15 6 -14 10 6 39 13 18 26 35 31 36 13 6 8 19 -8 19 -8 0 -13 -3 -10 -5 3 -3
-3 -11 -13 -19 -9 -8 -11 -12 -5 -8 8 4 11 1 7 -9 -5 -12 -8 -12 -23 2 -9 9
-13 19 -8 20 4 2 2 11 -5 20 -9 12 -6 11 10 -2 22 -19 32 -10 11 11 -8 8 -7
13 2 18 7 5 10 4 5 -3 -3 -6 -2 -13 3 -16 5 -3 12 1 15 9 4 10 -2 19 -17 25
-19 7 -19 9 -3 9 16 1 17 3 5 18 -11 15 -11 16 1 6 9 -9 19 -9 34 -2 17 8 16
6 -4 -11 -14 -12 -19 -19 -12 -15 7 4 20 1 29 -7 14 -11 16 -11 8 1 -6 11 -4
13 11 8 18 -7 18 -6 1 7 -10 8 -19 18 -20 23 -1 4 -10 7 -20 7 -12 -1 -15 2
-7 11 5 6 6 15 2 20 -4 4 6 0 21 -10 15 -10 30 -15 34 -11 3 3 0 6 -7 6 -10 0
-9 5 3 18 10 10 14 21 11 25 -4 3 -4 14 0 23 5 13 9 14 20 5 11 -9 16 -9 22 0
4 7 3 9 -3 6 -6 -4 -17 1 -24 10 -12 15 -12 16 6 9 16 -6 17 -5 8 5 -10 10 -9
17 5 33 9 11 11 16 5 12 -7 -4 -13 -2 -13 3 0 6 5 11 11 11 5 0 7 5 4 10 -3 6
0 10 7 10 7 1 2 7 -12 15 -14 8 -21 14 -16 15 5 0 3 6 -3 14 -10 12 -8 17 6
25 16 8 19 6 20 -12 0 -12 -1 -16 -4 -9 -3 6 -9 12 -15 12 -13 0 9 -28 32 -40
12 -6 17 -5 17 5 0 7 -5 11 -12 9 -6 -3 -11 5 -11 16 0 11 5 20 11 20 5 0 4 4
-4 9 -8 5 -19 8 -25 7 -6 -2 -8 -1 -3 1 4 3 5 9 1 14 -7 13 10 11 23 -2 8 -8
13 -7 18 2 5 7 4 10 -2 6 -17 -11 -39 21 -25 35 7 7 12 24 12 39 0 25 -3 27
-32 24 -24 -3 -29 -2 -18 5 13 9 13 10 0 10 -9 0 -11 3 -5 8 6 4 10 14 10 22
-1 8 2 20 5 25 4 6 15 33 25 60 21 59 34 77 48 68 6 -3 7 -1 3 6 -6 8 -12 9
-20 2 -10 -9 -13 3 -12 55 0 58 2 65 18 61 10 -3 16 -1 12 4 -3 5 -11 9 -18 9
-20 0 -16 103 4 112 12 5 11 7 -4 7 -16 1 -17 3 -5 18 8 9 9 14 3 10 -8 -4
-11 7 -10 36 1 27 6 44 16 49 13 6 13 7 -1 7 -16 1 -23 31 -7 31 4 0 8 5 8 11
0 5 -4 7 -10 4 -5 -3 -10 -1 -10 4 0 6 5 11 10 11 6 0 10 5 10 11 0 5 -4 8 -8
5 -4 -2 -8 6 -8 20 0 13 4 24 8 24 4 0 8 7 8 16 0 8 -4 13 -8 10 -4 -2 -8 6
-8 20 0 13 4 24 8 24 4 0 8 8 8 18 0 14 -2 15 -10 2 -7 -12 -9 -10 -7 8 1 25
7 27 27 10 12 -11 12 -10 2 3 -9 12 -9 18 1 28 10 11 8 12 -8 3 -20 -10 -20
-7 -20 99 0 95 2 110 18 115 21 7 23 21 2 21 -8 0 -12 -4 -9 -9 3 -4 1 -8 -4
-8 -5 0 -9 18 -8 40 1 37 9 50 19 33 2 -5 2 -3 1 4 -2 6 0 14 4 16 4 2 2 2 -5
1 -7 -2 -15 1 -18 6 -4 6 -1 10 4 10 6 0 11 8 11 18 0 14 -2 15 -10 2 -7 -12
-9 -10 -7 8 1 25 8 27 25 10 7 -7 5 3 -5 22 -23 47 -24 58 -4 65 10 3 18 12
18 19 0 8 -6 12 -14 9 -7 -3 -10 -9 -7 -14 3 -5 1 -9 -3 -9 -5 0 -8 41 -8 90
0 50 3 90 7 90 5 0 8 5 8 11 0 5 -3 8 -7 6 -5 -3 -8 12 -8 34 0 21 3 39 8 39
4 0 7 8 7 18 0 14 -2 15 -10 2 -7 -12 -9 -10 -7 8 1 23 7 27 23 15 5 -5 1 0
-9 10 -11 9 -15 17 -9 17 5 0 13 7 16 16 5 13 3 14 -6 6 -10 -8 -13 -5 -13 14
0 23 9 32 18 17 2 -5 2 -3 1 4 -2 6 0 14 4 16 4 2 2 2 -5 1 -7 -2 -15 1 -18 6
-4 6 -1 10 4 10 6 0 11 8 11 18 0 14 -2 15 -10 2 -7 -12 -9 -10 -7 8 1 25 7
27 27 10 12 -11 12 -10 2 3 -9 12 -9 18 1 28 10 11 8 12 -8 3 -20 -10 -20 -7
-20 99 0 95 2 110 18 115 21 7 23 21 2 21 -8 0 -12 -4 -9 -9 3 -4 1 -8 -4 -8
-5 0 -9 18 -8 40 1 37 9 50 19 33 2 -5 2 -3 1 4 -2 6 0 14 4 16 4 2 2 2 -5 1
-7 -2 -15 1 -18 6 -4 6 -1 10 4 10 6 0 11 8 11 18 0 14 -2 15 -10 2 -7 -12 -9
-10 -7 8 1 25 8 27 25 10 7 -7 5 3 -5 22 -23 47 -24 58 -4 65 10 3 18 12 18
19 0 8 -6 12 -14 9 -7 -3 -10 -9 -7 -14 3 -5 1 -9 -4 -9 -10 0 -10 80 1 97 4
6 1 14 -5 17 -7 3 -2 3 12 0 25 -6 25 -6 4 10 -28 20 -28 103 0 118 11 6 16 7
13 2 -3 -5 28 -9 68 -9 40 0 71 3 69 6 -1 3 3 6 11 6 8 0 12 -4 9 -8 -5 -9 37
-6 54 5 8 4 11 3 10 -4 -2 -7 7 -14 20 -16 16 -3 21 0 16 8 -5 7 -3 8 7 2 8
-5 21 -9 29 -9 8 0 14 -8 14 -17 -3 -28 13 -21 21 10 4 15 10 21 12 14 4 -10
8 -10 19 -1 11 9 18 8 32 -5 22 -19 39 -22 23 -3 -8 10 -7 14 4 14 8 0 12 -4
9 -9 -3 -4 -1 -8 5 -8 6 0 8 -8 5 -17 -4 -14 -3 -15 4 -5 11 16 10 16 43 4 20
-8 26 -7 26 3 0 7 -6 11 -14 8 -7 -3 -13 0 -13 7 0 9 -4 9 -17 -1 -9 -8 -14
-9 -10 -2 4 6 1 13 -5 16 -7 3 2 4 21 3 33 -2 66 -30 55 -47 -3 -5 -1 -9 4 -9
10 0 24 25 26 44 1 14 26 20 26 6 0 -6 -4 -9 -8 -6 -4 2 -8 -3 -8 -13 0 -13
10 -17 47 -17 40 0 45 2 31 12 -10 7 -18 8 -20 3 -2 -5 -8 -6 -14 -3 -6 4 -5
10 3 16 11 8 11 9 -1 5 -8 -2 -14 -10 -12 -16 1 -6 -2 -11 -8 -11 -15 0 -12
16 5 30 13 10 19 10 33 -4 22 -19 39 -22 23 -3 -8 10 -7 14 4 14 8 0 12 -4 9
-9 -3 -4 -1 -8 5 -8 6 0 8 -8 5 -17 -4 -14 -3 -15 4 -5 11 16 10 16 43 4 20
-8 26 -7 26 3 0 7 -6 11 -14 8 -7 -3 -13 0 -13 7 0 9 -4 9 -17 -1 -9 -8 -14
-9 -10 -2 4 6 1 13 -5 16 -7 3 2 4 21 3 33 -2 66 -30 55 -47 -3 -5 -1 -9 4 -9
10 0 24 25 26 44 1 14 26 20 26 6 0 -6 -4 -9 -8 -6 -4 2 -8 -3 -8 -13 0 -13
10 -17 47 -17 40 0 45 2 31 12 -10 7 -18 8 -20 3 -2 -5 -8 -6 -14 -3 -6 4 -5
10 3 16 11 8 11 9 -1 5 -8 -2 -14 -10 -12 -16 1 -6 -2 -11 -8 -11 -15 0 -12
16 5 30 13 10 19 10 33 -4 22 -19 39 -22 23 -3 -8 10 -7 14 4 14 8 0 12 -4 9
-9 -3 -4 -1 -8 5 -8 6 0 8 -8 5 -17 -4 -14 -3 -15 4 -5 11 16 10 16 43 4 20
-8 26 -7 26 3 0 7 -6 11 -14 8 -7 -3 -13 0 -13 7 0 9 -4 9 -17 -1 -9 -8 -14
-9 -10 -2 4 6 1 13 -5 16 -7 3 2 4 21 3 33 -2 66 -30 55 -47 -3 -5 -1 -9 4 -9
10 0 24 25 26 44 1 14 26 20 26 6 0 -6 -4 -9 -8 -6 -4 2 -8 -3 -8 -13 0 -13
10 -17 47 -17 40 0 45 2 31 12 -10 7 -18 8 -20 3 -2 -5 -8 -6 -14 -3 -6 4 -5
10 3 16 11 8 11 9 -1 5 -8 -2 -14 -10 -12 -16 1 -6 -2 -11 -8 -11 -15 0 -12
16 5 30 13 10 19 10 33 -4 22 -19 39 -22 23 -3 -8 10 -7 14 4 14 8 0 12 -4 9
-9 -3 -4 -1 -8 5 -8 6 0 8 -8 5 -17 -4 -14 -3 -15 4 -5 11 16 10 16 43 4 20
-8 26 -7 26 3 0 7 -6 11 -14 8 -7 -3 -13 0 -13 7 0 9 -4 9 -17 -1 -9 -8 -14
-9 -10 -2 4 6 1 13 -5 16 -7 3 2 4 21 3 33 -2 66 -30 55 -47 -13 -21 13 -6 30
18 11 14 13 23 6 18 -9 -5 -11 -4 -6 3 11 19 25 14 23 -8 -1 -11 -6 -20 -11
-20 -5 0 -6 -3 -3 -7 4 -3 1 -13 -6 -21 -10 -13 -9 -14 1 -8 18 11 42 62 34
71 -4 5 -1 5 6 1 7 -4 10 -13 6 -19 -3 -7 2 -3 10 7 9 11 16 14 16 8 0 -10 5
-10 23 -2 21 11 21 10 3 -4 -10 -9 -23 -13 -27 -10 -5 3 -9 1 -9 -4 0 -6 7
-13 16 -16 8 -3 13 -2 10 2 -8 13 50 41 65 31 12 -7 11 -9 -1 -10 -8 -1 -17
-1 -20 -1 -3 0 -10 -5 -16 -12 -9 -10 -5 -13 18 -13 19 0 24 3 16 9 -9 5 -4 8
14 8 22 0 26 -4 21 -17 -5 -15 -3 -14 10 2 15 19 16 19 22 2 7 -17 8 -17 20 0
13 17 14 17 20 0 7 -17 8 -17 22 0 12 14 14 15 10 2 -3 -9 1 -16 8 -16 7 0 11
5 9 11 -3 7 7 13 20 14 20 1 24 -2 19 -16 -4 -13 -2 -13 10 3 15 19 16 19 22
2 7 -17 8 -17 20 0 13 17 14 17 20 0 7 -17 8 -17 22 0 12 14 14 15 10 2 -3 -9
1 -16 8 -16 7 0 11 5 9 11 -3 7 7 13 20 14 20 1 24 -2 19 -16 -4 -13 -2 -13
10 3 15 19 16 19 22 2 7 -17 8 -17 20 0 13 17 14 17 20 0 7 -17 8 -17 22 0 12
14 14 15 10 2 -3 -9 1 -16 8 -16 7 0 11 5 9 11 -3 7 7 13 20 14 20 1 24 -2 19
-16 -4 -13 -2 -13 10 3 15 19 16 19 22 2 7 -17 8 -17 20 0 13 17 14 17 20 0 7
-17 8 -17 22 0 12 14 14 15 10 2 -3 -9 1 -16 8 -16 8 0 11 7 7 15 -3 9 -1 13
4 9 6 -3 16 -1 24 5 12 8 12 9 -3 4 -10 -3 -16 -2 -12 3 3 5 -1 11 -7 14 -7 2
-1 4 14 3 14 0 24 -4 21 -8 -2 -5 0 -8 6 -8 6 0 8 -8 5 -17 -4 -14 -3 -15 4
-5 11 16 10 16 43 4 20 -8 26 -7 26 3 0 7 -6 11 -14 8 -7 -3 -13 0 -13 7 0 9
-4 9 -17 -1 -9 -8 -14 -9 -10 -2 4 6 1 13 -5 16 -7 3 2 4 21 3 33 -2 66 -30
55 -47 -3 -5 -1 -9 4 -9 10 0 24 25 26 44 1 14 26 20 26 6 0 -6 -4 -9 -8 -6
-4 2 -8 -3 -8 -13 0 -10 9 -18 21 -19 16 -1 17 1 5 8 -13 8 -13 11 2 26 16 17
19 17 36 1 23 -21 39 -23 23 -3 -9 11 -9 16 0 22 8 4 9 3 5 -5 -4 -6 -1 -14 8
-17 8 -3 12 -13 10 -22 -5 -15 -4 -15 6 1 6 9 18 17 26 17 9 0 12 5 8 12 -4 7
-3 8 5 4 6 -4 9 -13 5 -19 -3 -7 2 -3 10 7 9 11 16 14 16 8 0 -10 5 -10 20 -2
11 6 20 8 20 4 0 -3 8 0 18 7 16 13 16 12 -1 -7 -11 -13 -27 -20 -42 -18 -28
3 -34 -10 -9 -20 8 -3 12 -2 9 4 -7 12 23 8 45 -5 13 -8 13 -7 1 8 -8 10 -9
17 -3 17 6 0 14 -4 17 -10 3 -5 14 -10 23 -9 12 0 9 3 -7 10 -19 8 -22 12 -12
22 7 7 17 12 24 12 7 1 11 6 10 12 -1 6 6 9 16 6 14 -3 22 3 29 24 6 17 11 21
11 11 1 -10 5 -18 10 -18 14 0 33 28 26 39 -3 6 0 9 7 6 9 -4 14 2 15 16 2 17
-1 18 -13 9 -8 -7 -15 -11 -15 -9 -5 13 -5 49 -1 45 2 -3 18 2 34 10 17 9 27
11 24 6 -4 -6 4 -9 19 -7 28 3 47 15 24 15 -12 0 -11 2 1 11 11 8 12 12 3 16
-7 2 -13 11 -13 19 0 9 5 12 10 9 6 -3 10 -1 10 5 0 7 -8 9 -20 5 -15 -5 -18
-3 -14 9 3 9 11 13 17 9 6 -3 7 -1 3 5 -5 9 -13 9 -27 2 -10 -6 -19 -13 -19
-16 0 -3 4 -3 8 0 5 3 9 -1 9 -9 0 -8 -4 -12 -8 -9 -4 2 -6 -5 -4 -16 2 -12
-3 -24 -15 -30 -16 -9 -18 -8 -13 6 4 11 3 15 -5 10 -14 -8 -12 36 3 47 7 6 6
10 -2 14 -7 2 -13 9 -13 15 0 6 9 3 20 -7 11 -10 20 -13 20 -7 0 6 -5 14 -10
17 -6 4 -7 11 -4 17 5 7 1 9 -9 5 -28 -11 -19 9 11 22 15 7 24 9 20 5 -4 -4
-2 -14 5 -23 10 -14 10 -14 -4 -4 -13 10 -16 10 -16 -2 0 -8 5 -11 10 -8 6 3
7 1 3 -5 -5 -8 -2 -10 9 -6 9 4 14 12 12 18 -2 6 5 16 17 23 14 8 16 12 6 13
-13 0 -13 1 0 11 11 8 12 12 3 16 -7 2 -13 11 -13 19 0 9 5 12 10 9 6 -3 10
-1 10 5 0 7 -8 9 -20 5 -15 -5 -18 -3 -14 9 3 8 14 13 25 11 17 -3 18 -1 8 18
-17 32 -23 35 -14 8 4 -14 3 -21 -2 -18 -6 4 -19 -1 -29 -9 -10 -9 -14 -13 -8
-10 6 3 11 -1 11 -9 0 -8 -4 -12 -8 -9 -4 2 -6 -5 -4 -16 2 -12 -3 -24 -15
-30 -16 -9 -18 -8 -13 6 4 11 3 15 -5 10 -14 -8 -12 36 3 47 7 6 6 10 -2 14
-7 2 -13 9 -13 15 0 6 9 3 20 -7 11 -10 20 -13 20 -7 0 6 -5 14 -10 17 -6 4
-7 11 -4 17 5 7 1 9 -9 5 -28 -11 -19 9 11 22 15 7 24 9 20 5 -4 -4 -2 -14 5
-23 10 -14 10 -14 -4 -4 -13 10 -16 10 -16 -2 0 -8 5 -11 10 -8 6 3 7 1 3 -5
-5 -8 -2 -10 9 -6 9 4 14 12 12 18 -2 6 5 16 17 23 14 8 16 12 6 13 -13 0 -13
1 0 11 11 8 12 12 3 16 -7 2 -13 11 -13 19 0 9 5 12 10 9 6 -3 10 -1 10 5 0 7
-8 9 -20 5 -15 -5 -18 -3 -14 9 3 9 11 13 17 9 6 -3 7 -1 3 5 -5 9 -13 9 -27
2 -10 -6 -19 -13 -19 -16 0 -3 4 -3 8 0 5 3 9 -1 9 -9 0 -8 -4 -12 -8 -9 -4 2
-6 -5 -4 -16 2 -12 -3 -24 -15 -30 -16 -9 -18 -8 -13 6 4 11 3 15 -5 10 -14
-8 -12 36 3 47 7 6 6 10 -2 14 -7 2 -13 9 -13 15 0 6 9 3 20 -7 11 -10 20 -13
20 -7 0 6 -5 14 -10 17 -6 4 -7 11 -4 17 5 7 1 9 -9 5 -28 -11 -19 9 11 22 15
7 24 9 20 5 -4 -4 -2 -14 5 -23 10 -14 10 -14 -4 -4 -13 10 -16 10 -16 -2 0
-8 5 -11 10 -8 6 3 7 1 3 -5 -5 -8 -2 -10 9 -6 9 4 14 12 12 18 -2 6 5 16 17
23 14 8 16 12 6 13 -13 0 -13 1 0 11 11 8 12 12 3 16 -7 2 -13 11 -13 19 0 9
5 12 10 9 6 -3 10 -1 10 5 0 6 -8 9 -18 6 -13 -4 -19 -1 -19 9 0 10 6 14 16
10 13 -5 14 -4 3 6 -10 11 -16 10 -30 -5 -12 -13 -12 -16 -2 -10 12 6 13 5 4
-7 -6 -8 -10 -22 -9 -32 2 -9 -5 -22 -16 -27 -15 -9 -17 -8 -12 6 4 11 3 15
-5 10 -14 -8 -12 36 3 47 6 4 5 10 -5 17 -11 7 -17 4 -22 -13 -6 -18 -7 -17
-4 6 2 15 -1 30 -5 33 -5 3 -9 9 -9 14 0 4 14 -5 31 -21 18 -16 35 -27 38 -23
3 3 -4 14 -16 24 -24 19 -32 37 -12 24 7 -4 10 -1 7 7 -3 8 -14 12 -24 11 -10
-2 -16 -1 -13 2 4 4 16 8 28 11 11 2 27 7 34 10 6 4 3 -1 -7 -9 -11 -9 -14
-16 -7 -16 7 0 10 -4 6 -9 -3 -5 -1 -12 5 -16 6 -4 8 -11 5 -16 -3 -5 1 -6 10
-3 9 4 14 13 11 20 -3 7 3 16 14 19 18 6 25 45 8 45 -8 0 -12 -16 -9 -33 1 -5
-4 -7 -11 -4 -7 2 -11 11 -9 18 2 8 5 24 6 37 3 19 1 21 -11 11 -13 -11 -15
-9 -11 12 2 13 2 18 0 12 -7 -20 -20 -15 -28 10 -4 13 -8 17 -12 9 -2 -6 -9
-9 -14 -6 -6 3 -5 11 2 20 7 9 8 14 1 14 -6 0 -13 -6 -16 -12 -4 -7 -5 -4 -3
8 3 15 -1 20 -19 20 -12 0 -20 -4 -18 -8 3 -5 10 -5 16 -2 7 5 9 0 6 -14 -4
-12 -2 -20 2 -17 5 3 15 -4 23 -16 8 -11 17 -17 19 -12 3 4 3 2 1 -5 -1 -8 2
-10 9 -6 7 5 8 3 3 -6 -6 -9 -4 -11 6 -5 11 7 11 5 -1 -10 -13 -17 -13 -18 0
-10 21 13 40 15 40 4 0 -5 -3 -9 -7 -10 -5 0 -18 -2 -30 -5 -13 -2 -23 1 -23
7 0 5 -6 7 -12 3 -10 -6 -10 -5 -1 8 7 8 10 18 6 21 -3 4 -12 -1 -20 -11 -8
-9 -12 -12 -8 -5 3 7 -1 23 -10 36 -8 13 -12 26 -9 29 3 4 -4 9 -15 13 -12 3
-19 11 -16 16 4 5 -1 9 -9 9 -8 0 -19 6 -23 13 -4 6 -19 13 -33 14 -14 2 -584
3 -1267 4 -1149 1 -1243 2 -1243 17 0 15 -2 15 -10 2 -7 -12 -9 -10 -7 8 1 24
8 27 23 12 7 -7 17 -3 30 12 l19 23 -22 -19 c-20 -17 -23 -17 -29 -2 -3 9 -9
14 -13 11 -4 -2 -8 2 -8 10 0 18 9 19 25 3 9 -9 9 -5 0 15 -7 15 -17 27 -23
27 -5 1 1 8 15 16 14 8 17 13 8 10 -10 -3 -20 -1 -23 4 -4 6 -1 10 4 10 6 0
11 8 11 18 0 14 -2 15 -10 2 -7 -12 -9 -10 -7 8 1 25 7 27 27 10 12 -11 12
-10 2 3 -9 12 -9 18 1 28 10 11 8 12 -8 3 -20 -10 -20 -7 -20 111 0 85 4 126
12 135 7 7 13 19 12 25 0 9 -2 8 -6 0 -7 -18 -20 -16 -20 2 0 8 7 15 14 15 11
0 11 4 -3 17 -11 11 -13 18 -5 21 6 2 11 8 11 13 0 6 -4 7 -10 4 -5 -3 -10 -1
-10 4 0 6 5 11 10 11 6 0 10 5 10 11 0 5 -4 8 -9 5 -5 -3 -8 2 -7 12 0 9 8 20
16 24 13 6 13 7 0 7 -13 1 -16 13 -15 55 0 49 2 53 16 40 14 -12 16 -12 16 1
0 8 -3 13 -6 11 -7 -5 -25 16 -29 33 -1 7 2 10 8 6 5 -3 10 -1 10 4 0 6 -4 11
-8 11 -4 0 -8 33 -7 74 0 42 4 72 9 68 5 -3 7 1 4 9 -5 12 6 14 56 14 56 0 61
-2 62 -23 1 -12 -3 -25 -9 -29 -6 -3 -7 -2 -4 4 3 5 -1 10 -9 10 -11 0 -10 -5
6 -22 21 -22 27 -41 11 -30 -6 3 -15 -4 -21 -16 -7 -12 -8 -19 -2 -15 6 3 13
0 16 -6 3 -7 4 -4 1 7 -4 16 0 21 16 22 17 2 18 -1 8 -13 -10 -12 -10 -15 2
-12 8 2 13 -3 12 -9 -2 -7 2 -12 9 -10 7 1 12 -3 13 -10 0 -6 4 -15 9 -20 5
-5 6 -3 2 5 -4 7 -1 12 8 12 9 0 16 4 16 10 0 5 -6 7 -13 4 -7 -2 -22 4 -32
16 -10 11 -13 20 -7 20 6 0 14 -4 17 -10 3 -5 11 -10 16 -10 6 0 7 5 4 10 -3
6 0 10 7 10 10 0 10 2 -1 9 -11 7 -11 9 0 13 10 3 10 6 1 12 -7 4 -12 2 -12
-3 0 -6 -9 -2 -20 9 -12 12 -26 18 -31 14 -7 -4 -7 1 0 15 7 12 9 26 6 31 -3
6 -3 10 0 10 3 0 13 -16 21 -36 11 -27 18 -33 28 -25 9 7 16 7 26 -2 10 -10
12 -9 7 6 -4 11 -3 16 3 12 6 -3 10 -1 10 4 0 6 5 11 12 11 9 0 9 -3 0 -12
-21 -21 -13 -32 10 -12 19 15 20 16 9 2 -12 -16 -11 -18 10 -19 13 -1 30 -1
37 0 15 2 16 -15 0 -25 -7 -5 -8 -3 -3 5 6 10 3 11 -13 2 -11 -6 -28 -8 -36
-5 -10 4 -16 1 -16 -7 0 -10 -3 -10 -12 -1 -17 17 -25 15 -25 -5 0 -25 15 -32
59 -28 36 3 38 2 26 -13 -12 -16 -11 -16 6 -2 18 14 19 13 13 -2 -3 -10 -2
-20 2 -22 12 -8 8 25 -7 54 -13 24 -13 24 12 -2 16 -18 27 -24 32 -17 4 8 9 7
16 -2 8 -11 9 -10 5 3 -9 26 4 29 26 5 15 -16 18 -17 14 -5 -3 10 -2 20 3 23
10 6 14 -7 11 -35 -2 -12 0 -13 7 -1 12 17 92 23 92 7 1 -12 17 13 20 29 0 6
15 17 32 26 l31 16 -24 22 c-15 14 -18 21 -9 19 8 -2 23 -16 33 -32 10 -15 21
-26 24 -23 3 3 -2 16 -11 29 -9 12 -16 27 -16 33 1 5 8 -3 16 -18 15 -28 16
-28 35 -11 10 9 19 13 19 8 0 -5 5 -2 11 6 9 13 10 12 5 -2 -6 -20 10 -34 18
-16 5 11 7 11 12 0 3 -6 11 -9 16 -6 7 4 8 2 4 -4 -4 -6 -14 -8 -23 -5 -10 4
-14 2 -10 -4 7 -11 -39 -60 -48 -51 -4 3 5 15 19 26 25 19 25 20 6 37 -22 20
-28 7 -7 -14 10 -11 9 -12 -2 -6 -9 5 -12 4 -7 -3 4 -7 -1 -10 -14 -7 -11 2
-18 0 -15 -5 3 -5 -4 -7 -15 -5 -13 2 -18 0 -14 -7 4 -6 -1 -6 -14 1 -14 7
-23 8 -27 1 -3 -5 -3 -10 1 -10 4 0 -1 -6 -12 -14 -10 -8 -16 -18 -11 -22 4
-4 7 -2 7 5 0 7 4 10 10 6 5 -3 7 -13 4 -23 -5 -14 -4 -14 4 -3 6 8 8 19 6 25
-2 6 7 12 21 12 23 2 24 0 13 -15 -12 -15 -11 -15 6 -1 18 14 19 13 13 -2 -3
-10 -3 -19 1 -22 4 -3 8 4 9 14 1 11 -2 22 -8 25 -5 4 -9 12 -9 18 1 7 9 2 20
-11 12 -15 21 -19 26 -11 5 8 9 7 16 -2 8 -11 9 -10 5 3 -9 26 4 29 26 5 15
-16 18 -17 14 -5 -3 10 -2 20 3 23 10 6 14 -7 11 -35 -2 -12 0 -13 7 -1 12 17
92 23 92 7 0 -6 5 -3 11 6 5 10 8 20 7 24 -2 3 12 14 31 23 l34 18 -24 22
c-15 14 -18 21 -9 19 8 -2 23 -16 33 -32 10 -15 21 -26 24 -23 3 3 -2 16 -11
29 -9 12 -16 27 -16 33 1 5 8 -3 16 -18 15 -28 16 -28 35 -11 10 9 19 13 19 8
0 -5 5 -2 11 6 9 13 10 12 5 -2 -6 -20 10 -34 18 -16 5 11 7 11 12 0 3 -6 11
-9 16 -6 7 4 8 2 4 -4 -4 -6 -14 -8 -23 -5 -10 4 -14 2 -10 -4 7 -11 -39 -60
-48 -51 -4 3 5 15 19 26 25 19 25 20 6 37 -22 20 -28 7 -7 -14 10 -11 9 -12
-2 -6 -9 5 -12 4 -7 -3 4 -7 -1 -10 -14 -7 -11 2 -18 0 -15 -5 3 -5 -4 -7 -15
-5 -13 2 -18 0 -14 -7 4 -6 -1 -6 -14 1 -14 7 -23 8 -27 1 -3 -5 -3 -10 1 -10
4 0 -1 -6 -12 -14 -10 -8 -16 -18 -11 -22 4 -4 7 -2 7 5 0 7 4 10 10 6 5 -3 7
-13 4 -23 -5 -14 -4 -14 4 -3 6 8 8 19 6 25 -2 6 7 12 21 12 23 2 24 0 13 -15
-12 -15 -11 -15 6 -1 18 14 19 13 13 -2 -3 -10 -3 -19 1 -22 4 -3 8 4 9 14 1
11 -2 22 -8 25 -5 4 -9 12 -9 18 1 7 9 2 20 -11 12 -15 21 -19 26 -11 5 8 9 7
16 -2 8 -11 9 -10 5 3 -9 26 4 29 26 5 15 -16 18 -17 14 -5 -3 10 -2 20 3 23
10 6 14 -7 11 -35 -2 -12 0 -13 7 -1 12 17 92 23 92 7 1 -12 21 18 21 31 0 5
14 15 31 24 l31 16 -24 22 c-15 14 -18 21 -9 19 8 -2 23 -16 33 -32 10 -15 21
-26 24 -23 3 3 -2 16 -11 29 -9 12 -16 27 -16 33 1 5 8 -3 16 -18 15 -28 16
-28 35 -11 10 9 19 13 19 8 0 -5 5 -2 11 6 9 13 10 12 5 -2 -6 -20 10 -34 18
-16 5 11 7 11 12 0 3 -6 11 -9 16 -6 7 4 8 2 4 -4 -4 -6 -14 -8 -23 -5 -10 4
-14 2 -10 -4 7 -11 -39 -60 -48 -51 -4 3 5 15 19 26 25 19 25 20 6 37 -22 20
-28 7 -7 -14 10 -11 9 -12 -2 -6 -9 5 -12 4 -7 -3 4 -7 -1 -10 -14 -7 -11 2
-18 0 -15 -5 3 -5 -4 -7 -15 -5 -13 2 -18 0 -14 -7 4 -6 -1 -6 -14 1 -14 7
-23 8 -27 1 -3 -5 -3 -10 1 -10 4 0 -1 -6 -12 -14 -10 -8 -16 -18 -11 -22 4
-4 7 -2 7 5 0 7 4 10 10 6 5 -3 7 -13 4 -23 -5 -14 -4 -14 4 -3 6 8 8 19 6 25
-2 6 7 12 21 12 23 2 24 0 13 -15 -12 -15 -11 -15 6 -1 18 14 19 13 13 -2 -3
-10 -3 -19 1 -22 4 -3 8 4 9 14 1 11 -2 22 -8 25 -5 4 -9 12 -9 18 1 7 9 2 20
-11 12 -15 21 -19 26 -11 5 8 9 7 16 -2 8 -11 9 -10 5 3 -9 26 4 29 26 5 15
-16 18 -17 14 -5 -3 10 -2 20 3 23 10 6 14 -7 11 -35 -1 -12 0 -12 7 -2 11 16
69 25 77 11 8 -12 25 -12 25 1 0 5 -5 9 -11 7 -6 -1 -13 3 -16 10 -6 16 27 10
37 -7 5 -8 7 -17 5 -20 -2 -4 2 -7 10 -7 10 0 11 5 4 18 -6 11 -5 20 1 24 5 3
10 2 10 -3 0 -5 10 -20 22 -33 14 -17 19 -19 15 -6 -8 21 2 49 14 42 4 -3 6
-12 3 -19 -3 -8 -1 -17 5 -21 7 -4 8 0 4 10 -5 15 -3 15 15 4 11 -7 19 -16 16
-20 -2 -4 4 -13 14 -20 14 -11 15 -11 5 1 -10 11 -9 17 4 32 13 14 13 20 3 33
-7 8 -9 15 -4 15 4 0 19 -12 32 -27 13 -16 21 -22 17 -15 -3 6 -1 12 5 12 6 0
8 5 5 10 -10 17 5 11 28 -10 l21 -20 13 25 c8 14 19 25 26 25 8 0 6 -4 -3 -10
-8 -5 -11 -10 -6 -10 6 0 5 -5 -2 -12 -7 -7 -12 -19 -11 -28 0 -8 4 -5 10 9
l9 24 27 -24 c14 -13 23 -18 19 -11 -4 6 -2 12 3 12 6 0 11 5 11 11 0 8 -5 8
-15 -1 -9 -8 -15 -9 -15 -2 0 6 5 14 10 17 15 9 12 28 -3 22 -8 -3 -14 3 -14
14 -1 12 5 19 15 19 13 0 14 -2 4 -9 -11 -6 -9 -9 5 -13 11 -3 20 -13 21 -22
1 -9 3 -22 4 -29 1 -8 7 -14 15 -14 10 0 10 5 -2 24 -19 28 -2 31 18 3 8 -11
17 -17 22 -12 4 4 4 -3 1 -15 -4 -12 -2 -24 3 -28 7 -4 8 1 4 11 -5 12 -3 15
6 9 10 -6 11 -3 2 13 -8 16 -7 23 6 33 14 12 15 11 8 -10 -5 -16 -4 -21 4 -17
6 4 11 15 11 24 0 13 2 14 9 4 7 -11 9 -10 14 3 5 10 3 14 -5 9 -7 -5 -8 -3
-3 6 5 9 4 11 -3 6 -8 -5 -10 -1 -6 11 3 10 2 14 -3 8 -11 -14 -36 -18 -28 -5
3 5 2 10 -4 10 -18 0 -23 -20 -6 -26 12 -5 13 -9 4 -20 -6 -8 -16 -14 -21 -14
-6 0 -4 8 3 17 12 14 12 16 0 8 -9 -5 -12 -4 -8 2 4 6 -4 10 -20 9 -18 -1 -27
5 -29 17 -2 19 20 47 39 47 6 0 3 -6 -6 -13 -15 -10 -16 -15 -4 -31 12 -17 14
-17 28 0 12 16 12 17 -3 11 -10 -3 -18 -2 -18 3 0 14 34 12 48 -2 6 -6 15 -8
19 -3 5 4 2 10 -4 12 -18 6 -16 20 1 20 8 0 14 -3 13 -6 -3 -15 16 -51 24 -45
6 4 6 10 -1 19 -11 13 -9 49 3 61 3 4 4 -4 2 -16 -2 -13 3 -36 12 -51 14 -24
15 -31 4 -41 -9 -9 -12 -9 -7 -1 3 6 3 14 -2 17 -4 2 -9 -4 -9 -15 -1 -10 3
-19 8 -19 6 0 7 -6 3 -12 -5 -9 -2 -9 9 1 14 11 20 11 34 0 9 -8 14 -9 10 -2
-4 6 -1 13 5 16 10 3 10 8 -1 18 -8 8 -11 9 -8 4 3 -6 -4 -12 -16 -12 -12 -1
-17 1 -12 5 16 12 16 39 0 46 -16 6 -21 36 -5 36 5 0 6 -7 3 -17 -4 -10 -2
-14 5 -9 6 3 13 -2 16 -12 6 -18 36 -27 36 -10 0 4 -3 8 -8 8 -4 0 -12 8 -19
18 -9 15 -8 19 3 19 7 0 11 -4 9 -8 -3 -3 2 -13 11 -20 13 -11 15 -9 9 17 -5
25 -4 26 4 7 7 -15 16 -21 26 -17 16 6 21 -7 8 -20 -5 -4 -8 -13 -8 -19 0 -7
-5 -12 -12 -12 -22 0 -26 -15 -7 -29 16 -12 20 -12 27 0 4 8 5 19 2 24 -10 16
11 12 25 -5 8 -10 9 -15 2 -15 -6 0 -16 -10 -23 -21 -9 -17 -8 -20 2 -14 8 6
11 4 7 -6 -4 -10 1 -15 13 -15 17 0 17 2 2 18 -9 10 -13 21 -10 25 4 3 7 2 7
-3 0 -4 7 2 16 14 21 31 38 28 18 -3 -9 -14 -14 -28 -10 -32 3 -3 6 -1 6 6 0
7 4 9 10 6 6 -4 7 1 3 10 -5 15 -3 15 15 4 11 -7 19 -16 17 -19 -2 -4 2 -7 10
-7 8 0 12 3 10 6 -5 9 24 45 31 38 3 -3 2 -12 -2 -19 -12 -19 -14 -39 -3 -32
5 3 7 9 4 14 -3 5 1 12 9 17 13 7 16 12 16 28 0 2 10 -6 23 -18 13 -12 22 -25
20 -29 -2 -4 4 -5 13 -1 13 5 15 3 9 -7 -6 -9 -4 -11 5 -5 10 6 9 11 -5 22
-21 15 -30 47 -12 40 7 -3 11 -8 10 -13 0 -5 10 -18 25 -28 14 -11 22 -15 19
-9 -4 6 -1 14 5 17 7 3 4 4 -6 3 -10 -1 -21 4 -24 12 -2 8 0 11 5 8 5 -3 10 0
10 8 0 8 -5 11 -10 8 -6 -3 -7 -2 -4 4 4 6 -4 10 -20 9 -18 -1 -27 5 -29 17
-2 19 20 47 39 47 6 0 3 -6 -6 -13 -15 -10 -16 -15 -4 -31 12 -17 14 -17 28 0
12 16 12 17 -3 11 -10 -3 -18 -2 -18 3 0 14 34 12 48 -2 6 -6 15 -8 19 -3 5 4
2 10 -4 12 -18 6 -16 20 1 20 8 0 14 -3 13 -6 -3 -15 16 -51 24 -45 6 4 6 10
-1 19 -11 13 -9 49 3 61 3 4 4 -4 2 -16 -2 -13 3 -36 12 -51 14 -24 15 -31 4
-41 -9 -9 -12 -9 -7 -1 3 6 2 15 -4 18 -6 4 -10 3 -9 -2 5 -29 -2 -36 -17 -17
-8 10 -13 14 -10 8 3 -6 -1 -11 -9 -11 -8 0 -11 5 -8 11 3 6 0 5 -8 -2 -12
-11 -12 -14 1 -22 8 -5 18 -6 22 -3 5 2 16 -1 25 -9 9 -7 14 -8 10 -2 -4 7 -1
14 6 16 18 7 38 -2 31 -14 -4 -6 2 -5 15 1 11 7 21 15 21 20 0 4 7 8 15 8 22
0 18 -12 -10 -27 -14 -7 -23 -15 -20 -18 2 -3 16 3 31 13 21 14 26 14 22 3 -4
-8 0 -15 7 -15 10 0 11 5 4 18 -15 29 -10 36 10 12 10 -12 22 -19 26 -15 4 4
4 -3 1 -15 -4 -12 -2 -24 3 -28 7 -4 8 1 4 11 -4 12 -3 15 5 10 23 -14 11 6
-20 35 -18 16 -27 29 -21 29 7 0 15 -5 18 -10 4 -6 10 -8 15 -5 5 3 12 -5 16
-17 5 -18 8 -19 18 -7 6 8 17 14 24 13 6 -1 17 -2 23 -3 5 0 7 -7 3 -13 -5 -9
-2 -8 9 1 15 12 21 11 44 -10 14 -13 23 -18 19 -11 -4 6 -2 12 3 12 6 0 11 5
11 11 0 8 -5 8 -15 -1 -8 -7 -15 -8 -15 -2 0 5 6 15 14 21 12 10 17 8 25 -7 6
-11 8 -21 6 -24 -3 -3 2 -5 9 -5 11 0 12 5 6 17 -9 17 -4 30 12 30 4 0 7 -3 7
-7 -3 -21 2 -33 12 -27 7 4 9 0 5 -14 -4 -11 -2 -23 3 -27 7 -4 8 1 4 11 -5
12 -3 15 6 9 10 -6 11 -3 2 13 -8 16 -7 23 6 33 14 12 15 11 8 -10 -5 -16 -4
-21 4 -17 6 4 11 15 11 24 0 13 2 14 9 4 7 -11 9 -10 14 3 5 10 3 14 -5 9 -7
-5 -8 -3 -3 6 5 9 4 11 -3 6 -8 -5 -10 -1 -6 11 3 10 2 14 -3 8 -11 -14 -36
-18 -28 -5 3 5 2 10 -4 10 -18 0 -23 -20 -6 -26 12 -5 13 -9 4 -20 -6 -8 -16
-14 -21 -14 -6 0 -4 8 3 17 12 14 12 16 0 8 -9 -5 -12 -4 -8 2 3 5 0 10 -8 10
-8 0 -15 -5 -15 -10 0 -5 -7 -4 -15 3 -11 9 -12 16 -5 25 5 6 7 15 3 19 -4 4
-1 11 7 16 22 14 36 12 17 -3 -15 -10 -16 -15 -4 -31 12 -17 14 -17 28 0 12
16 12 17 -3 11 -10 -3 -18 -2 -18 3 0 14 34 12 48 -2 6 -6 15 -8 19 -3 5 4 2
10 -4 12 -18 6 -16 20 1 20 8 0 14 -3 13 -6 -3 -15 16 -51 24 -45 6 4 6 10 -1
19 -11 13 -9 49 3 61 3 4 4 -4 2 -16 -2 -13 3 -36 12 -51 14 -24 15 -31 4 -41
-9 -9 -12 -9 -7 -1 3 6 3 14 -2 17 -4 2 -9 -4 -9 -15 -1 -10 3 -19 8 -19 6 0
7 -6 3 -12 -4 -7 2 -4 14 6 22 19 32 10 11 -11 -8 -8 -7 -13 2 -18 8 -5 10 -4
5 4 -4 6 0 14 9 17 12 5 13 9 4 20 -18 22 6 16 26 -6 18 -20 36 -27 34 -12 -3
19 2 33 11 27 5 -3 6 -13 3 -23 -5 -14 -3 -15 8 -4 10 9 10 15 1 24 -19 19
-14 29 7 16 11 -7 18 -15 15 -19 -2 -4 3 -12 11 -19 10 -9 15 -9 15 -1 0 6 -4
11 -9 11 -5 0 -8 8 -6 18 1 9 -2 23 -8 30 -5 6 -6 12 -1 12 13 1 -39 29 -53
30 -7 0 -10 -7 -7 -15 3 -8 9 -14 12 -13 17 2 32 -3 32 -10 0 -5 -6 -9 -12
-10 -16 -1 -53 -10 -53 -12 0 -1 -9 -3 -21 -4 -11 -1 -21 3 -21 10 0 7 7 10
15 6 10 -3 13 -1 8 6 -11 17 36 54 59 46 11 -3 30 -7 41 -8 13 0 19 -6 17 -14
-4 -8 0 -10 11 -6 9 3 13 11 9 17 -4 6 -1 7 6 3 8 -6 11 -2 9 10 -2 12 4 19
15 20 11 1 12 0 3 -3 -16 -5 -11 -33 6 -33 5 0 7 4 4 9 -3 5 1 12 10 15 8 3
13 10 10 15 -8 12 4 42 14 36 4 -3 10 4 13 15 3 11 0 20 -6 20 -6 0 -7 3 -4 6
10 11 38 -18 33 -33 -3 -7 0 -13 7 -13 7 0 13 -11 13 -25 2 -21 -1 -23 -12
-14 -7 6 -12 16 -11 21 1 6 -2 12 -8 14 -14 5 -41 -13 -32 -22 3 -4 14 -1 24
7 15 13 15 12 0 -12 -10 -14 -15 -27 -13 -30 2 -2 -2 -10 -10 -17 -17 -15 -18
-9 -3 21 10 21 10 21 -5 3 -9 -11 -16 -24 -16 -29 0 -5 -8 -3 -17 4 -9 8 -14
9 -10 3 3 -6 0 -20 -8 -30 -13 -16 -14 -17 -9 -1 3 9 2 17 -4 17 -12 0 -8 -48
5 -61 6 -6 9 -1 9 13 -1 17 4 22 19 21 11 -1 14 0 8 3 -7 3 -13 10 -13 15 0
15 25 5 32 -13 8 -20 28 -25 28 -7 0 5 -4 7 -10 4 -5 -3 -10 1 -10 9 0 20 5
20 36 0 13 -9 27 -14 31 -10 3 3 1 6 -5 6 -13 0 -8 30 9 58 11 17 16 19 28 9
12 -10 13 -9 2 12 -10 19 -15 21 -22 10 -5 -8 -9 -9 -9 -4 0 6 4 16 9 24 7 10
12 9 23 -8 l16 -22 0 26 c0 14 -4 28 -9 31 -5 3 -9 10 -9 16 0 6 12 1 27 -13
15 -13 22 -17 15 -7 -7 9 -9 18 -5 20 4 3 3 3 -4 2 -7 -2 -15 1 -18 6 -4 6 0
10 7 10 8 0 6 4 -4 11 -17 9 -17 12 -2 35 12 18 20 22 29 14 10 -8 15 -8 21 1
4 7 3 9 -3 6 -12 -8 -46 26 -37 36 4 4 13 -1 21 -11 13 -15 13 -15 3 5 -9 21
-8 22 20 18 17 -2 28 0 26 4 -3 4 -19 7 -36 6 -17 -1 -33 2 -36 7 -5 7 10 12
29 9 5 -1 6 3 3 8 -4 5 -3 11 1 14 5 2 3 2 -4 1 -6 -2 -17 4 -25 13 -11 14
-10 15 12 10 14 -4 19 -4 12 -1 -6 3 -10 9 -8 13 3 4 -1 8 -9 8 -8 0 -16 -4
-16 -9 -3 -19 -5 -24 -16 -43 -6 -11 -15 -16 -19 -12 -5 5 -3 12 5 16 18 11
18 15 2 34 -9 11 -10 17 -2 17 6 0 11 -6 11 -12 1 -7 6 -4 13 7 7 11 19 21 27
23 8 2 21 8 30 13 11 7 10 8 -9 6 -14 -1 -26 4 -28 13 -4 12 -3 12 5 1 6 -8
12 -9 16 -3 3 5 -1 13 -10 16 -16 6 -11 26 7 26 6 0 7 -5 3 -12 -5 -7 -3 -8 6
-3 10 6 9 11 -4 21 -9 6 -13 14 -9 16 4 3 3 3 -4 2 -7 -2 -15 1 -18 5 -7 12
24 23 38 14 7 -3 9 -3 5 2 -4 4 -2 15 5 24 9 12 7 11 -13 -2 -28 -19 -40 -21
-40 -7 0 6 6 10 14 10 8 0 18 5 22 11 4 8 -1 9 -17 4 -21 -7 -22 -6 -11 7 10
12 9 18 -2 28 -13 10 -15 9 -12 -7 2 -10 -5 -26 -16 -35 -20 -20 -25 -10 -5
11 10 11 7 12 -13 7 -23 -5 -23 -5 2 7 26 12 27 14 11 29 -14 15 -14 19 -2 34
12 15 11 16 -11 10 -25 -6 -25 -6 -2 5 12 7 22 15 22 19 0 3 7 15 16 26 15 18
15 18 4 -3 -9 -19 -8 -22 5 -17 8 3 13 10 10 14 -3 4 2 10 10 14 12 4 13 10 3
31 -6 14 -15 25 -20 25 -5 0 -7 4 -4 9 3 5 -1 12 -10 15 -13 5 -12 11 10 37
14 17 26 36 25 42 0 8 -2 8 -6 -1 -2 -6 -9 -10 -14 -7 -5 4 -6 -1 -3 -10 5
-11 2 -14 -10 -9 -18 7 -20 16 -6 30 6 6 6 15 0 24 -8 12 -10 12 -10 1 0 -11
-3 -11 -15 -1 -10 9 -15 9 -15 1 0 -6 5 -11 11 -11 8 0 7 -6 -2 -17 -12 -14
-12 -16 0 -8 11 6 13 4 8 -8 -3 -9 -3 -16 1 -16 19 3 33 -2 27 -11 -11 -18
-51 10 -53 38 -2 31 -8 63 -17 95 -4 15 -3 18 3 9 7 -11 11 -10 16 4 3 9 4 19
1 22 -3 3 -5 0 -5 -6 0 -6 -7 -9 -15 -6 -8 4 -12 10 -9 15 3 5 0 9 -5 9 -6 0
-11 7 -11 15 0 8 -3 14 -8 13 -10 -4 -63 38 -57 44 3 3 -3 5 -13 5 -61 -1 -83
4 -76 16 6 10 4 10 -7 0 -15 -14 -43 -18 -35 -5 3 5 -1 9 -9 9 -8 0 -12 -4 -9
-9 3 -4 -2 -8 -10 -8 -9 0 -16 6 -16 13 0 9 -2 9 -8 1 -8 -14 -110 -13 -131 0
-10 6 -12 5 -7 -2 10 -16 -7 -15 -23 1 -8 6 -11 7 -8 1 4 -7 -8 -11 -34 -11
-32 0 -39 3 -34 16 3 10 0 9 -10 -4 -14 -17 -17 -18 -25 -5 -5 8 -10 10 -10 4
0 -6 -11 -11 -25 -11 -15 0 -22 4 -18 11 3 6 0 6 -8 -1 -15 -15 -33 -17 -24
-4 3 5 1 13 -5 16 -6 4 -9 1 -8 -7 2 -10 -15 -13 -69 -14 -40 -1 -71 2 -68 6
2 3 -2 7 -10 7 -8 0 -12 -4 -9 -9 3 -4 -2 -8 -10 -8 -9 0 -16 5 -16 10 0 6 -5
10 -11 10 -5 0 -7 -4 -4 -10 9 -14 -8 -13 -23 2 -9 9 -15 9 -24 0 -16 -16 -31
-15 -22 1 5 7 1 7 -10 -2 -15 -13 -19 -13 -27 0 -6 10 -9 10 -9 2 0 -7 -7 -13
-16 -13 -9 0 -12 5 -8 13 5 7 1 7 -10 -2 -14 -12 -19 -12 -26 -2 -6 11 -9 11
-13 0 -5 -12 -7 -11 -16 1 -5 8 -7 18 -4 24 3 5 1 6 -5 2 -6 -4 -9 -12 -6 -19
4 -10 -12 -14 -61 -14 -35 0 -63 3 -60 6 2 4 -2 8 -10 8 -8 0 -12 -4 -9 -9 3
-4 -2 -8 -10 -8 -9 0 -16 6 -16 13 0 9 -2 9 -8 1 -8 -14 -110 -13 -131 0 -10
6 -12 5 -7 -2 10 -16 -7 -15 -23 1 -8 6 -11 7 -8 1 4 -7 -8 -11 -34 -11 -32 0
-39 3 -34 16 3 10 0 9 -10 -4 -14 -17 -17 -18 -25 -5 -5 8 -10 10 -10 4 0 -6
-11 -11 -25 -11 -15 0 -22 4 -18 11 3 6 0 6 -8 -1 -15 -15 -33 -17 -24 -4 3 5
1 13 -5 16 -6 4 -9 1 -8 -7 2 -10 -15 -13 -69 -14 -40 -1 -71 2 -68 6 2 3 -2
7 -10 7 -8 0 -12 -4 -9 -9 3 -4 -2 -8 -10 -8 -9 0 -16 5 -16 10 0 6 -5 10 -11
10 -5 0 -7 -4 -4 -10 9 -14 -8 -13 -23 2 -9 9 -15 9 -24 0 -16 -16 -31 -15
-22 1 5 7 1 7 -10 -2 -15 -13 -19 -13 -27 0 -6 10 -9 10 -9 2 0 -7 -7 -13 -16
-13 -9 0 -12 5 -8 13 5 7 1 7 -10 -2 -14 -12 -19 -12 -26 -2 -6 11 -9 11 -13
0 -5 -12 -7 -11 -16 1 -5 8 -7 18 -5 22 6 9 0 11 -9 2z m2048 -304 c4 -6 12
-7 18 -4 7 4 9 4 5 -1 -4 -4 6 -26 22 -48 29 -39 33 -56 11 -42 -6 3 -11 12
-11 20 0 7 -7 16 -16 19 -9 3 -12 11 -8 18 5 8 2 9 -9 5 -12 -4 -14 -2 -10 11
6 15 5 16 -13 2 -17 -14 -18 -14 -6 2 10 13 10 17 0 21 -9 4 -9 6 -1 6 6 1 15
-4 18 -9z m23 -70 c21 -20 21 -22 6 -46 -9 -13 -19 -22 -22 -20 -3 3 1 12 8
21 15 18 -1 20 -19 3 -10 -11 -11 -10 -6 5 4 9 14 17 22 17 8 0 11 5 8 11 -4
6 -13 8 -19 6 -7 -3 -13 1 -13 9 0 19 9 18 35 -6z m-18 -144 c0 -3 -4 -8 -10
-11 -5 -3 -10 -1 -10 4 0 6 5 11 10 11 6 0 10 -2 10 -4z m36 -66 c0 -12 -4
-16 -9 -11 -5 5 -6 14 -3 20 10 15 12 14 12 -9z m-36 -16 c0 -8 -19 -13 -24
-6 -3 5 1 9 9 9 8 0 15 -2 15 -3z m47 -27 c7 -5 10 -14 6 -21 -12 -19 -12 -40
0 -55 9 -11 9 -13 0 -8 -6 4 -14 3 -18 -3 -10 -16 -25 -1 -18 17 4 11 3 14 -5
9 -7 -4 -12 -2 -12 4 0 7 6 10 14 7 9 -4 13 0 11 11 -2 9 -4 19 -4 22 -1 3 -6
-2 -11 -10 -6 -9 -10 -10 -10 -3 0 6 5 15 10 18 6 3 10 11 10 17 0 6 -7 5 -17
-3 -16 -13 -17 -12 -4 3 13 17 21 16 48 -5z m-54 -98 c-9 -9 -12 -7 -10 9 1
14 5 18 11 12 7 -7 6 -14 -1 -21z m53 -71 c-13 -7 -14 -13 -6 -23 8 -10 8 -15
0 -20 -8 -5 -8 -10 0 -20 12 -15 -3 -30 -20 -20 -5 3 -10 1 -10 -4 0 -6 5 -11
11 -11 5 0 8 -4 5 -9 -3 -5 -17 -8 -31 -8 -22 0 -23 1 -9 12 14 10 15 15 4 34
-6 13 -8 21 -2 17 5 -3 16 2 23 11 12 14 11 15 -11 9 -21 -6 -20 -4 8 13 17
11 32 26 32 31 0 6 5 8 11 4 8 -5 6 -10 -5 -16z m-16 -138 c3 0 -3 -7 -13 -14
-15 -12 -15 -15 -2 -26 8 -7 15 -18 15 -24 0 -6 -7 -2 -15 8 -8 11 -15 14 -15
8 0 -7 -5 -12 -11 -12 -5 0 -8 4 -5 9 3 5 -1 14 -9 21 -32 27 -3 43 55 30z
m-115 -50 c-3 -5 -12 -10 -18 -10 -7 0 -6 4 3 10 19 12 23 12 15 0z m-80 -50
c-3 -4 0 -11 5 -13 6 -3 5 -4 -1 -3 -7 1 -13 10 -15 19 -1 9 2 15 7 11 5 -3 7
-9 4 -14z m-2820 1 c3 -5 0 -13 -6 -17 -8 -5 -9 -3 -4 6 6 10 4 12 -9 7 -10
-4 -15 -3 -11 3 8 13 22 13 30 1z m1200 -12 c-4 -19 24 -88 35 -89 13 0 7 39
-6 44 -16 6 -19 36 -4 36 5 0 6 -7 3 -17 -4 -10 -2 -14 5 -9 6 3 13 -2 16 -12
6 -18 36 -27 36 -10 0 4 -3 8 -8 8 -4 0 -12 8 -19 18 -9 15 -8 19 3 19 7 0 11
-4 9 -8 -3 -3 2 -13 11 -20 13 -11 15 -9 9 17 -5 25 -4 26 4 7 7 -15 16 -21
26 -17 16 7 21 -11 6 -20 -10 -6 -9 -31 1 -42 4 -3 4 -12 1 -20 -4 -12 -12 -9
-39 11 -30 23 -34 24 -43 8 -9 -17 -11 -17 -24 1 -10 13 -16 16 -21 7 -4 -6
-13 -8 -19 -4 -20 13 -36 12 -48 -3 -15 -18 -33 -18 -26 -1 3 8 -1 14 -8 14
-7 0 -11 -6 -8 -14 3 -7 0 -13 -7 -13 -6 0 -9 4 -6 9 3 5 -1 11 -9 15 -8 3
-17 1 -20 -5 -4 -5 -11 -6 -17 -3 -6 4 3 14 22 24 l33 17 -24 22 c-15 14 -18
21 -9 19 8 -2 23 -16 33 -32 10 -15 21 -26 24 -23 3 3 -2 16 -11 29 -9 12 -16
27 -16 33 1 5 8 -3 16 -18 14 -26 17 -27 32 -14 24 20 43 30 40 20 -4 -16 14
-53 23 -47 6 4 6 10 -1 19 -5 7 -8 23 -6 36 6 30 5 29 10 29 3 0 3 -9 1 -21z
m159 9 c-5 -8 -1 -9 12 -4 14 5 16 4 7 -5 -13 -13 -37 -3 -28 12 4 5 8 9 11 9
3 0 2 -5 -2 -12z m240 0 c-5 -8 -1 -9 12 -4 14 5 16 4 7 -5 -13 -13 -37 -3
-28 12 4 5 8 9 11 9 3 0 2 -5 -2 -12z m240 0 c-5 -8 -1 -9 12 -4 14 5 16 4 7
-5 -13 -13 -37 -3 -28 12 4 5 8 9 11 9 3 0 2 -5 -2 -12z m240 0 c-5 -8 -1 -9
12 -4 14 5 16 4 7 -5 -13 -13 -37 -3 -28 12 4 5 8 9 11 9 3 0 2 -5 -2 -12z
m240 0 c-5 -8 -1 -9 12 -4 14 5 16 4 7 -5 -13 -13 -37 -3 -28 12 4 5 8 9 11 9
3 0 2 -5 -2 -12z m240 0 c-5 -8 -1 -9 12 -4 14 5 16 4 7 -5 -13 -13 -37 -3
-28 12 4 5 8 9 11 9 3 0 2 -5 -2 -12z m-2684 -28 c-8 -5 -17 -6 -20 -3 -3 3 1
8 8 10 6 3 9 10 6 16 -4 7 -1 7 7 -1 12 -11 12 -14 -1 -22z m163 13 c-3 -7 -6
-13 -8 -13 -2 0 -5 6 -8 13 -3 8 1 14 8 14 7 0 11 -6 8 -14z m35 -8 c-3 -3 -9
2 -12 12 -6 14 -5 15 5 6 7 -7 10 -15 7 -18z m132 19 c0 -8 -19 -13 -24 -6 -3
5 1 9 9 9 8 0 15 -2 15 -3z m28 -19 c-3 -3 -9 2 -12 12 -6 14 -5 15 5 6 7 -7
10 -15 7 -18z m132 19 c0 -8 -19 -13 -24 -6 -3 5 1 9 9 9 8 0 15 -2 15 -3z
m28 -19 c-3 -3 -9 2 -12 12 -6 14 -5 15 5 6 7 -7 10 -15 7 -18z m132 19 c0 -8
-19 -13 -24 -6 -3 5 1 9 9 9 8 0 15 -2 15 -3z m28 -19 c-3 -3 -9 2 -12 12 -6
14 -5 15 5 6 7 -7 10 -15 7 -18z m132 19 c0 -8 -19 -13 -24 -6 -3 5 1 9 9 9 8
0 15 -2 15 -3z m28 -19 c-3 -3 -9 2 -12 12 -6 14 -5 15 5 6 7 -7 10 -15 7 -18z
m132 19 c0 -8 -19 -13 -24 -6 -3 5 1 9 9 9 8 0 15 -2 15 -3z m28 -19 c-3 -3
-9 2 -12 12 -6 14 -5 15 5 6 7 -7 10 -15 7 -18z m132 19 c0 -8 -19 -13 -24 -6
-3 5 1 9 9 9 8 0 15 -2 15 -3z m28 -19 c-3 -3 -9 2 -12 12 -6 14 -5 15 5 6 7
-7 10 -15 7 -18z m417 3 c5 4 5 2 1 -5 -3 -6 2 -18 12 -25 25 -18 37 -39 19
-32 -9 3 -22 -4 -31 -17 -15 -22 -16 -22 -37 -3 -20 17 -22 18 -32 3 -10 -15
-12 -15 -28 5 -12 14 -14 26 -8 38 7 12 4 20 -8 27 -10 6 -13 11 -6 11 6 0 15
-5 18 -10 4 -7 14 -6 28 1 19 9 18 8 -3 -10 -14 -11 -22 -23 -18 -26 4 -4 18
4 32 18 24 24 26 24 31 6 4 -10 11 -19 16 -19 13 0 11 7 -7 38 -11 18 -12 22
-2 10 8 -10 19 -14 23 -10z m480 0 c5 4 5 2 1 -5 -3 -6 3 -18 16 -27 12 -9 18
-19 14 -23 -5 -5 -11 -2 -13 5 -3 6 -9 12 -15 12 -7 0 -6 -5 1 -14 15 -18 51
-17 44 1 -3 8 2 13 13 13 14 0 16 -2 6 -9 -11 -6 -9 -9 5 -13 19 -5 28 -38 11
-38 -4 0 -8 7 -8 15 0 17 -16 20 -25 5 -3 -5 -12 -7 -19 -4 -8 3 -20 -4 -28
-14 -12 -18 -16 -18 -33 -6 -10 8 -15 14 -10 14 5 0 4 5 -3 12 -9 9 -15 9 -24
0 -18 -18 -51 14 -38 39 8 14 6 20 -7 28 -10 6 -13 11 -6 11 6 0 15 -5 18 -10
4 -7 14 -6 28 1 19 9 18 8 -3 -10 -14 -11 -22 -23 -18 -26 4 -4 18 4 32 18 24
24 26 24 31 6 4 -10 11 -19 16 -19 13 0 11 7 -7 38 -11 18 -12 22 -2 10 8 -10
19 -14 23 -10z m480 0 c5 4 5 2 1 -5 -3 -6 3 -18 16 -27 12 -9 18 -19 14 -23
-5 -5 -11 -2 -13 5 -3 6 -10 12 -16 12 -7 -1 -2 -9 11 -20 19 -16 27 -17 43
-7 15 9 21 8 34 -6 8 -9 10 -13 3 -7 -8 7 -18 4 -30 -7 -17 -15 -20 -15 -29
-3 -8 13 -10 13 -19 0 -5 -8 -10 -10 -10 -4 0 12 -38 13 -56 1 -7 -4 -15 0
-18 9 -4 9 -9 14 -13 11 -3 -4 -12 -2 -19 4 -10 8 -11 16 -4 30 8 14 6 20 -7
28 -10 6 -13 11 -6 11 6 0 15 -5 18 -10 4 -7 14 -6 28 1 19 9 18 8 -3 -10 -14
-11 -22 -23 -18 -26 4 -4 18 4 32 18 24 24 26 24 31 6 4 -10 11 -19 16 -19 13
0 11 7 -7 38 -11 18 -12 22 -2 10 8 -10 19 -14 23 -10z m315 12 c0 -5 -4 -10
-10 -10 -5 0 -10 5 -10 10 0 6 5 10 10 10 6 0 10 -4 10 -10z m80 -16 c0 -2 -9
0 -20 6 -11 6 -20 13 -20 16 0 2 9 0 20 -6 11 -6 20 -13 20 -16z m150 -14 c-5
-9 -6 -21 -2 -25 4 -4 0 -6 -8 -3 -13 4 -16 23 -11 62 0 5 8 3 16 -4 10 -9 12
-17 5 -30z m-2779 -4 c10 9 19 13 19 8 0 -5 5 -2 11 6 9 13 10 12 5 -2 -6 -20
10 -34 18 -16 5 11 7 11 12 0 3 -6 11 -9 16 -6 7 4 8 2 4 -4 -4 -6 -13 -9 -22
-5 -8 3 -14 2 -13 -3 1 -5 0 -12 -1 -16 -1 -5 -3 -13 -4 -20 -1 -14 -36 -20
-36 -5 0 8 -4 7 -12 -1 -16 -16 -31 -15 -25 1 3 8 -1 14 -8 14 -7 0 -11 -6 -8
-14 3 -7 0 -13 -7 -13 -6 0 -9 4 -6 9 8 13 -20 21 -32 9 -6 -6 -12 -6 -17 2
-5 8 -13 6 -26 -6 -17 -15 -21 -16 -34 -3 -12 12 -12 17 1 33 11 16 17 17 26
8 19 -19 33 -14 15 6 -12 13 -13 21 -6 32 9 13 10 12 5 -2 -6 -20 10 -34 18
-16 5 11 7 11 12 0 3 -6 11 -9 16 -6 7 4 8 2 4 -4 -4 -6 -12 -9 -20 -6 -7 3
-13 -2 -13 -11 0 -18 5 -18 36 -1 l23 13 -23 22 c-15 14 -18 21 -9 19 8 -2 23
-16 33 -32 10 -15 21 -26 24 -23 3 3 -2 16 -11 29 -9 12 -16 27 -16 33 1 5 8
-3 16 -18 15 -28 16 -28 35 -11z m320 0 c10 9 19 13 19 8 0 -5 5 -2 11 6 9 13
10 12 5 -2 -6 -20 10 -34 18 -16 5 11 7 11 12 0 3 -6 11 -9 16 -6 7 4 8 2 4
-4 -4 -6 -13 -9 -22 -5 -8 3 -14 2 -13 -3 1 -5 0 -12 -1 -16 -1 -5 -3 -13 -4
-20 -1 -14 -36 -20 -36 -5 0 8 -4 7 -12 -1 -16 -16 -31 -15 -25 1 3 8 -1 14
-8 14 -7 0 -11 -6 -8 -14 3 -7 0 -13 -7 -13 -6 0 -9 4 -6 9 3 5 -1 11 -9 15
-8 3 -17 1 -20 -5 -4 -5 -11 -6 -17 -3 -6 4 3 14 22 24 l33 17 -24 22 c-15 14
-18 21 -9 19 8 -2 23 -16 33 -32 10 -15 21 -26 24 -23 3 3 -2 16 -11 29 -9 12
-16 27 -16 33 1 5 8 -3 16 -18 15 -28 16 -28 35 -11z m320 0 c10 9 19 13 19 8
0 -5 5 -2 11 6 9 13 10 12 5 -2 -6 -20 10 -34 18 -16 5 11 7 11 12 0 3 -6 11
-9 16 -6 7 4 8 2 4 -4 -4 -6 -13 -9 -22 -5 -8 3 -14 2 -13 -3 1 -5 0 -12 -1
-16 -1 -5 -3 -13 -4 -20 -1 -14 -36 -20 -36 -5 0 8 -4 7 -12 -1 -16 -16 -31
-15 -25 1 3 8 -1 14 -8 14 -7 0 -11 -6 -8 -14 3 -7 0 -13 -7 -13 -6 0 -9 4 -6
9 3 5 -1 11 -9 15 -8 3 -17 1 -20 -5 -4 -5 -11 -6 -17 -3 -6 4 3 14 22 24 l33
17 -24 22 c-15 14 -18 21 -9 19 8 -2 23 -16 33 -32 10 -15 21 -26 24 -23 3 3
-2 16 -11 29 -9 12 -16 27 -16 33 1 5 8 -3 16 -18 15 -28 16 -28 35 -11z m682
14 c3 -11 1 -20 -4 -20 -5 0 -9 9 -9 20 0 11 2 20 4 20 2 0 6 -9 9 -20z m480
0 c3 -11 1 -20 -4 -20 -5 0 -9 9 -9 20 0 11 2 20 4 20 2 0 6 -9 9 -20z m302
-14 c16 6 21 -7 8 -20 -5 -4 -8 -13 -8 -19 0 -7 -10 -12 -23 -12 -12 0 -27 -6
-31 -14 -7 -10 -13 -11 -27 -2 -11 6 -14 11 -9 11 16 0 15 38 -1 44 -16 6 -19
36 -4 36 5 0 6 -7 3 -17 -4 -10 -2 -14 5 -9 6 3 13 -2 16 -12 6 -18 36 -27 36
-10 0 4 -3 8 -8 8 -4 0 -12 8 -19 18 -9 15 -8 19 3 19 7 0 11 -4 9 -8 -3 -3 2
-13 11 -20 13 -11 15 -9 9 17 -5 25 -4 26 4 7 7 -15 16 -21 26 -17z m171 19
c-3 -8 0 -15 6 -15 6 0 9 -2 6 -5 -8 -8 -38 6 -38 17 0 5 5 6 10 3 6 -3 10 -1
10 4 0 6 3 11 6 11 3 0 4 -7 0 -15z m-2440 -4 c-4 -5 0 -11 6 -13 7 -3 -2 -5
-20 -5 -33 0 -33 1 -10 13 28 16 31 17 24 5z m1512 -16 c-3 -3 -9 2 -12 12 -6
14 -5 15 5 6 7 -7 10 -15 7 -18z m480 0 c-3 -3 -9 2 -12 12 -6 14 -5 15 5 6 7
-7 10 -15 7 -18z m481 6 c9 -15 6 -22 -14 -35 -21 -14 -24 -14 -19 -1 4 8 13
15 20 15 12 0 12 4 4 20 -6 11 -8 20 -6 20 3 0 10 -9 15 -19z m185 4 c-4 -8
-1 -15 4 -15 6 0 13 7 15 15 4 11 4 10 3 -2 -2 -23 -30 -23 -34 0 -2 9 1 17 7
17 6 0 8 -7 5 -15z m-2834 -24 c3 -1 11 -10 18 -21 17 -27 -1 -25 -35 4 -23
21 -25 24 -8 21 11 -2 22 -4 25 -4z m129 -55 c-8 -8 -13 -8 -16 2 -4 10 -8 10
-19 1 -12 -10 -17 -9 -27 1 -10 10 -9 12 5 7 10 -3 20 -2 23 2 3 5 14 7 26 4
15 -4 17 -8 8 -17z m2784 7 c-6 -15 -19 -17 -27 -4 -7 11 0 18 18 18 8 0 12
-6 9 -14z m-2468 -11 c-3 -3 -11 0 -18 7 -9 10 -8 11 6 5 10 -3 15 -9 12 -12z
m320 0 c-3 -3 -11 0 -18 7 -9 10 -8 11 6 5 10 -3 15 -9 12 -12z m320 0 c-3 -3
-11 0 -18 7 -9 10 -8 11 6 5 10 -3 15 -9 12 -12z m589 6 c-3 -4 -9 -8 -15 -8
-5 0 -9 4 -9 8 0 5 7 9 15 9 8 0 12 -4 9 -9z m296 0 c0 -4 -4 -8 -9 -8 -6 0
-12 4 -15 8 -3 5 1 9 9 9 8 0 15 -4 15 -9z m525 -1026 c-3 -3 -11 0 -18 7 -9
10 -8 11 6 5 10 -3 15 -9 12 -12z m71 -38 c1 -9 0 -13 -4 -10 -3 4 -7 14 -8
22 -1 9 0 13 4 10 3 -4 7 -14 8 -22z m19 -118 c2 -13 -2 -27 -9 -29 -7 -3 -11
9 -11 34 0 41 16 38 20 -5z m-75 -16 c0 -5 -4 -10 -10 -10 -5 0 -10 5 -10 10
0 6 5 10 10 10 6 0 10 -4 10 -10z m-13 -92 c-3 -7 -5 -2 -5 12 0 14 2 19 5 13
2 -7 2 -19 0 -25z m88 -52 c2 -14 -2 -27 -9 -29 -10 -4 -14 28 -7 62 3 12 14
-12 16 -33z m-75 -16 c0 -5 -4 -10 -10 -10 -5 0 -10 5 -10 10 0 6 5 10 10 10
6 0 10 -4 10 -10z m-13 -92 c-3 -7 -5 -2 -5 12 0 14 2 19 5 13 2 -7 2 -19 0
-25z m88 -52 c2 -14 -2 -27 -9 -29 -10 -4 -14 28 -7 62 3 12 14 -12 16 -33z
m-75 -16 c0 -5 -4 -10 -10 -10 -5 0 -10 5 -10 10 0 6 5 10 10 10 6 0 10 -4 10
-10z m-13 -92 c-3 -7 -5 -2 -5 12 0 14 2 19 5 13 2 -7 2 -19 0 -25z m89 -53
c1 -16 -2 -25 -9 -22 -10 3 -13 25 -8 54 2 14 14 -8 17 -32z m-76 -13 c0 -5
-7 -9 -15 -9 -8 0 -12 4 -9 9 3 4 9 8 15 8 5 0 9 -4 9 -8z m-1140 -185 c0 -5
7 -3 17 4 15 13 15 12 2 -8 -8 -14 -16 -18 -20 -11 -4 6 -12 7 -19 3 -9 -6
-11 -4 -5 5 6 10 4 12 -9 7 -9 -4 -15 -3 -11 2 7 12 45 10 45 -2z m71 -4 c8
-10 9 -14 2 -10 -6 4 -14 3 -18 -3 -9 -15 -25 -2 -18 15 7 20 17 19 34 -2z
m89 4 c0 -5 7 -3 17 4 15 13 15 12 2 -8 -8 -14 -16 -18 -20 -11 -4 6 -12 7
-19 3 -9 -5 -11 -4 -6 3 9 15 1 15 -26 1 -12 -7 -18 -7 -14 -1 3 6 0 12 -6 14
-7 3 6 4 30 4 23 0 42 -4 42 -9z m71 -4 c8 -10 9 -14 2 -10 -6 4 -14 3 -18 -3
-9 -15 -25 -2 -18 15 7 20 17 19 34 -2z m89 4 c0 -5 7 -3 17 4 15 13 15 12 2
-8 -8 -14 -16 -18 -20 -11 -4 6 -12 7 -19 3 -9 -5 -11 -4 -6 3 9 15 1 15 -26
1 -12 -7 -18 -7 -14 -1 3 6 0 12 -6 14 -7 3 6 4 30 4 23 0 42 -4 42 -9z m71
-4 c8 -10 9 -14 2 -10 -6 4 -14 3 -18 -3 -9 -15 -25 -2 -18 15 7 20 17 19 34
-2z m89 4 c0 -5 7 -3 17 4 15 13 15 12 2 -8 -8 -14 -16 -18 -20 -11 -4 6 -12
7 -19 3 -9 -5 -11 -4 -6 3 9 15 1 15 -26 1 -12 -7 -18 -7 -14 -1 3 6 0 12 -6
14 -7 3 6 4 30 4 23 0 42 -4 42 -9z m71 -4 c8 -10 9 -14 2 -10 -6 4 -14 3 -18
-3 -9 -15 -25 -2 -18 15 7 20 17 19 34 -2z m-1501 -7 c0 -3 -4 -8 -10 -11 -5
-3 -10 -1 -10 4 0 6 5 11 10 11 6 0 10 -2 10 -4z m240 0 c0 -3 -4 -8 -10 -11
-5 -3 -10 -1 -10 4 0 6 5 11 10 11 6 0 10 -2 10 -4z m240 0 c0 -3 -4 -8 -10
-11 -5 -3 -10 -1 -10 4 0 6 5 11 10 11 6 0 10 -2 10 -4z m240 0 c0 -3 -4 -8
-10 -11 -5 -3 -10 -1 -10 4 0 6 5 11 10 11 6 0 10 -2 10 -4z m960 0 c0 -3 -4
-8 -10 -11 -5 -3 -10 -1 -10 4 0 6 5 11 10 11 6 0 10 -2 10 -4z m-3223 -2392
c-3 -3 -12 -4 -19 -1 -8 3 -5 6 6 6 11 1 17 -2 13 -5z m923 -274 c8 -5 10 -10
3 -10 -6 0 -10 -11 -8 -26 1 -14 -3 -28 -10 -30 -7 -3 -12 -13 -10 -22 1 -9
-2 -23 -7 -29 -6 -7 -8 -19 -5 -27 9 -22 -15 -37 -34 -23 -14 10 -14 14 -3 25
11 10 14 10 15 0 0 -7 4 -4 9 7 5 14 3 24 -9 34 -15 13 -15 13 1 8 10 -3 20
-2 23 3 4 6 1 10 -4 10 -15 0 -9 48 6 54 7 3 10 12 7 21 -7 17 4 19 26 5z
m-873 -175 c0 -8 -4 -12 -9 -9 -4 3 -8 9 -8 15 0 5 4 9 8 9 5 0 9 -7 9 -15z
m57 -119 c-6 -18 -5 -19 9 -8 9 8 18 9 21 4 5 -9 -21 -39 -27 -31 -36 50 -40
73 -11 62 10 -4 12 -13 8 -27z m43 -41 c0 -19 -27 -29 -41 -15 -8 8 -6 9 5 5
10 -4 19 0 22 9 8 20 14 20 14 1z m595 -67 c-6 -6 -7 0 -4 19 5 21 7 23 10 9
2 -10 0 -22 -6 -28z m-600 18 c7 4 8 2 4 -4 -4 -6 -13 -9 -21 -6 -8 4 -12 11
-8 17 5 8 8 7 11 -1 2 -7 9 -9 14 -6z m586 -123 c-9 -11 -9 -16 1 -23 8 -4 11
-12 7 -18 -3 -6 -2 -13 4 -17 19 -12 10 -32 -12 -31 -13 1 -29 -2 -35 -7 -15
-11 -18 -31 -3 -22 6 3 10 4 10 1 0 -16 -21 -13 -30 5 -7 13 -8 19 -2 15 6 -3
13 -2 17 4 3 5 1 10 -5 10 -6 0 -2 10 9 22 17 17 18 24 8 37 -9 12 -9 13 1 7
6 -4 12 -3 12 1 0 5 -6 15 -12 22 -11 10 -10 12 2 9 9 -2 14 3 12 11 -3 12 0
12 13 1 12 -10 13 -16 3 -27z m-54 -139 c19 -7 21 -30 4 -40 -6 -4 -8 -3 -4 4
3 6 -1 18 -10 26 -17 17 -15 19 10 10z m-419 -34 c-3 -5 -2 -10 3 -10 6 0 12
-6 15 -14 6 -15 -9 -16 -31 -2 -10 6 -10 11 -1 22 13 16 23 19 14 4z m196
-343 c-1 -12 -15 -9 -19 4 -3 6 1 10 8 8 6 -3 11 -8 11 -12z"/>
<path d="M5696 6231 c-4 -5 -2 -12 3 -15 5 -4 12 -2 15 3 4 5 2 12 -3 15 -5 4
-12 2 -15 -3z"/>
<path d="M5693 6043 c4 -6 0 -16 -8 -23 -19 -16 -19 -27 0 -27 9 0 14 6 11 12
-2 7 0 17 6 23 6 6 6 12 -3 17 -7 5 -10 4 -6 -2z"/>
<path d="M5660 5919 c0 -5 -4 -7 -10 -4 -14 9 -12 -1 3 -13 10 -8 13 -6 14 9
1 10 0 19 -3 19 -2 0 -4 -5 -4 -11z"/>
<path d="M3822 5774 c-7 -8 -15 -24 -17 -35 -4 -21 -4 -21 16 -3 21 19 25 20
45 3 7 -6 16 -3 25 8 13 16 12 17 -3 4 -15 -11 -19 -10 -29 13 -14 30 -19 31
-37 10z m28 -16 c0 -6 -3 -8 -7 -5 -3 4 -13 1 -22 -6 -14 -11 -14 -10 -2 6 15
20 31 22 31 5z"/>
<path d="M3983 5761 c-9 -11 -21 -17 -27 -14 -6 4 -5 -1 3 -10 8 -10 16 -15
19 -12 3 3 12 -1 20 -8 13 -10 14 -9 7 3 -13 20 -13 32 -2 48 15 20 -2 14 -20
-7z"/>
<path d="M3760 5750 c-12 -7 -10 -9 7 -7 12 0 19 5 17 9 -6 10 -6 10 -24 -2z"/>
<path d="M4079 5773 c-8 -11 -22 -19 -32 -17 -15 2 -16 0 -6 -12 9 -11 15 -12
26 -3 10 9 18 8 32 -5 17 -15 19 -15 36 4 19 22 13 42 -7 22 -10 -10 -15 -7
-24 9 -11 21 -11 21 -25 2z m49 -21 c15 12 16 11 3 -5 -10 -13 -17 -15 -27 -6
-8 6 -14 17 -14 23 0 6 5 3 11 -7 9 -15 13 -16 27 -5z"/>
<path d="M4559 5773 c-8 -11 -22 -19 -32 -17 -15 2 -16 0 -6 -12 9 -11 15 -12
26 -3 11 9 19 7 37 -10 19 -18 25 -19 35 -8 9 11 8 17 -4 27 -8 7 -15 9 -15 4
-1 -5 -7 2 -14 15 -13 23 -13 23 -27 4z m41 -29 c20 -3 21 -4 15 -15 -8 -12
-45 17 -45 35 0 6 5 4 10 -4 5 -8 14 -16 20 -16z"/>
<path d="M5039 5773 c-8 -11 -22 -19 -32 -17 -11 1 -16 -1 -12 -4 4 -4 11 -8
16 -8 5 -1 10 -3 12 -4 1 -2 21 -3 44 -4 34 -2 40 1 31 11 -6 8 -13 11 -16 8
-3 -3 -11 4 -18 16 -11 21 -11 21 -25 2z m24 -16 c3 -7 -3 -13 -14 -14 -15 -1
-16 1 -6 12 15 18 14 18 20 2z"/>
<path d="M2862 5774 c-18 -20 -26 -60 -9 -46 7 6 14 10 17 9 3 0 13 4 23 9 17
10 17 11 0 26 -16 14 -20 14 -31 2z m16 -20 c-1 -5 -9 -9 -16 -10 -10 -2 -11
1 -1 12 12 14 24 13 17 -2z"/>
<path d="M2701 5746 c-7 -8 -8 -17 -3 -20 6 -3 15 1 21 8 7 8 8 17 3 20 -6 3
-15 -1 -21 -8z"/>
<path d="M2800 5750 c-12 -7 -10 -9 7 -7 12 0 19 5 17 9 -6 10 -6 10 -24 -2z"/>
<path d="M3182 5774 c-18 -20 -26 -60 -9 -46 7 6 14 10 17 9 3 0 13 4 23 9 17
10 17 11 0 26 -16 14 -20 14 -31 2z m16 -20 c-1 -5 -9 -9 -16 -10 -10 -2 -11
1 -1 12 12 14 24 13 17 -2z"/>
<path d="M3120 5750 c-12 -7 -10 -9 7 -7 12 0 19 5 17 9 -6 10 -6 10 -24 -2z"/>
<path d="M3502 5774 c-18 -20 -26 -60 -9 -46 7 6 14 10 17 9 3 0 13 4 23 9 17
10 17 11 0 26 -16 14 -20 14 -31 2z m16 -20 c-1 -5 -9 -9 -16 -10 -10 -2 -11
1 -1 12 12 14 24 13 17 -2z"/>
<path d="M3440 5750 c-12 -7 -10 -9 7 -7 12 0 19 5 17 9 -6 10 -6 10 -24 -2z"/>
<path d="M4946 5764 c-20 -19 -20 -21 -1 -21 8 0 13 3 10 5 -3 3 0 11 6 19 16
18 4 16 -15 -3z"/>
<path d="M4893 5733 c0 -9 4 -10 14 -2 7 6 13 12 13 14 0 1 -6 2 -13 2 -8 0
-14 -6 -14 -14z"/>
<path d="M2290 1139 c-7 -11 -9 -23 -6 -27 3 -3 6 0 6 7 0 7 4 10 8 7 4 -2 8
4 8 15 0 24 -3 24 -16 -2z"/>
<path d="M2256 1018 c3 -5 10 -6 15 -3 13 9 11 12 -6 12 -8 0 -12 -4 -9 -9z"/>
<path d="M2113 645 c4 -5 0 -18 -8 -31 -13 -20 -13 -22 3 -20 19 3 25 43 8 53
-6 3 -8 2 -3 -2z"/>
<path d="M4300 6860 c-9 -6 -10 -10 -3 -10 6 0 15 5 18 10 8 12 4 12 -15 0z"/>
<path d="M4535 6860 c-3 -5 -1 -10 4 -10 6 0 11 5 11 10 0 6 -2 10 -4 10 -3 0
-8 -4 -11 -10z"/>
<path d="M5260 6860 c-9 -6 -10 -10 -3 -10 6 0 15 5 18 10 8 12 4 12 -15 0z"/>
<path d="M5615 6831 c-3 -5 -2 -12 3 -15 5 -3 9 1 9 9 0 17 -3 19 -12 6z"/>
<path d="M5635 6770 c10 -11 20 -20 23 -20 3 0 -3 9 -13 20 -10 11 -20 20 -23
20 -3 0 3 -9 13 -20z"/>
<path d="M5674 6714 c1 -8 4 -15 7 -16 2 -2 3 -1 2 1 -2 2 2 9 7 16 7 8 5 12
-4 12 -8 0 -13 -6 -12 -13z"/>
<path d="M5653 6672 c1 -14 7 -17 26 -13 25 5 25 6 3 9 -12 2 -20 8 -17 13 4
5 2 9 -4 9 -5 0 -9 -8 -8 -18z"/>
<path d="M5713 6655 c0 -8 4 -12 9 -9 5 3 6 10 3 15 -9 13 -12 11 -12 -6z"/>
<path d="M5718 6543 c7 -3 16 -2 19 1 4 3 -2 6 -13 5 -11 0 -14 -3 -6 -6z"/>
<path d="M5750 6545 c0 -7 30 -13 34 -7 3 4 -4 9 -15 9 -10 1 -19 0 -19 -2z"/>
<path d="M5736 6518 c3 -5 10 -6 15 -3 13 9 11 12 -6 12 -8 0 -12 -4 -9 -9z"/>
<path d="M5750 6445 c0 -7 30 -13 34 -7 3 4 -4 9 -15 9 -10 1 -19 0 -19 -2z"/>
<path d="M5700 6410 c-8 -5 -11 -10 -6 -10 5 0 3 -7 -4 -15 -11 -13 -11 -18 0
-28 10 -10 12 -8 7 6 -4 10 -3 15 2 12 5 -3 12 -1 16 4 3 6 11 9 18 7 7 -1 9
-1 5 1 -5 3 -8 11 -8 19 0 16 -9 18 -30 4z m11 -23 c-10 -9 -11 -8 -5 6 3 10
9 15 12 12 3 -3 0 -11 -7 -18z"/>
<path d="M5710 6361 c0 -5 7 -12 16 -15 24 -9 27 -7 10 9 -17 17 -26 19 -26 6z"/>
<path d="M5748 6363 c7 -3 16 -2 19 1 4 3 -2 6 -13 5 -11 0 -14 -3 -6 -6z"/>
<path d="M5757 6336 c-17 -13 -17 -14 0 -20 10 -4 14 -4 10 0 -4 4 -2 13 4 21
14 17 9 16 -14 -1z"/>
<path d="M1759 6273 c-13 -16 -12 -17 4 -4 16 13 21 21 13 21 -2 0 -10 -8 -17
-17z"/>
<path d="M5790 6279 c0 -5 5 -7 10 -4 6 3 10 8 10 11 0 2 -4 4 -10 4 -5 0 -10
-5 -10 -11z"/>
<path d="M5786 6242 c-3 -5 1 -9 9 -9 8 0 12 4 9 9 -3 4 -7 8 -9 8 -2 0 -6 -4
-9 -8z"/>
<path d="M5755 6139 c-4 -6 -4 -13 -1 -16 3 -4 6 -1 6 6 0 7 5 9 12 5 7 -4 8
-3 4 4 -9 15 -13 15 -21 1z"/>
<path d="M1506 6080 c6 -8 10 -23 8 -33 -1 -11 0 -16 4 -13 12 13 10 36 -6 48
-15 11 -15 11 -6 -2z"/>
<path d="M1430 6060 c0 -5 5 -10 11 -10 5 0 7 5 4 10 -3 6 -8 10 -11 10 -2 0
-4 -4 -4 -10z"/>
<path d="M1433 6027 c0 -8 6 -14 14 -14 9 0 10 4 2 14 -6 7 -12 13 -14 13 -1
0 -2 -6 -2 -13z"/>
<path d="M1490 6020 c0 -5 5 -10 11 -10 5 0 7 5 4 10 -3 6 -8 10 -11 10 -2 0
-4 -4 -4 -10z"/>
<path d="M1460 6000 c-12 -7 -10 -9 7 -7 12 0 19 5 17 9 -6 10 -6 10 -24 -2z"/>
<path d="M5790 5986 c0 -2 7 -7 16 -10 8 -3 12 -2 9 4 -6 10 -25 14 -25 6z"/>
<path d="M1398 5973 c7 -3 16 -2 19 1 4 3 -2 6 -13 5 -11 0 -14 -3 -6 -6z"/>
<path d="M5717 5956 c-3 -8 0 -17 7 -19 10 -4 12 1 9 14 -6 23 -9 24 -16 5z"/>
<path d="M5760 5940 c-9 -6 -10 -10 -3 -10 6 0 15 5 18 10 8 12 4 12 -15 0z"/>
<path d="M1373 5895 c0 -8 4 -12 9 -9 5 3 6 10 3 15 -9 13 -12 11 -12 -6z"/>
<path d="M5753 5895 c0 -8 4 -12 9 -9 5 3 6 10 3 15 -9 13 -12 11 -12 -6z"/>
<path d="M5736 5847 c3 -10 9 -15 12 -12 3 3 0 11 -7 18 -10 9 -11 8 -5 -6z"/>
<path d="M2378 5813 c-14 -17 -19 -103 -6 -103 5 0 7 4 4 9 -10 16 18 19 30 3
9 -12 13 -12 19 -2 5 9 4 11 -3 6 -7 -4 -12 -4 -13 1 0 4 -2 18 -3 31 -2 12 3
30 11 40 12 15 13 15 11 -8 -2 -16 2 -24 10 -22 6 1 12 -2 12 -8 0 -5 -8 -10
-17 -10 -15 0 -16 -2 -3 -10 20 -13 34 14 20 40 -11 20 -10 21 12 24 6 0 12 7
14 14 1 7 0 8 -3 2 -2 -5 -10 -7 -16 -3 -20 13 -67 10 -79 -4z m36 -5 c-3 -5
-9 -6 -14 -3 -5 3 -8 -9 -7 -26 1 -18 -3 -34 -9 -36 -7 -2 -11 7 -9 25 3 37
10 49 29 49 8 0 13 -4 10 -9z"/>
<path d="M5670 5790 c0 -5 5 -10 11 -10 5 0 7 5 4 10 -3 6 -8 10 -11 10 -2 0
-4 -4 -4 -10z"/>
<path d="M1310 5786 c0 -2 7 -7 16 -10 8 -3 12 -2 9 4 -6 10 -25 14 -25 6z"/>
<path d="M5404 5779 c-14 -23 -14 -42 0 -30 7 6 16 8 19 4 10 -9 8 10 -2 26
-7 11 -10 11 -17 0z"/>
<path d="M4463 5761 c-9 -11 -21 -17 -26 -14 -6 3 -7 1 -3 -6 6 -8 12 -9 20
-2 7 6 16 9 19 6 4 -3 5 -2 2 2 -3 3 0 12 6 20 6 7 9 13 5 13 -3 0 -14 -9 -23
-19z"/>
<path d="M2590 5758 c0 -4 4 -8 9 -8 6 0 12 4 15 8 3 5 -1 9 -9 9 -8 0 -15 -4
-15 -9z"/>
<path d="M3010 5759 c0 -5 5 -7 10 -4 6 3 10 8 10 11 0 2 -4 4 -10 4 -5 0 -10
-5 -10 -11z"/>
<path d="M3330 5759 c0 -5 5 -7 10 -4 6 3 10 8 10 11 0 2 -4 4 -10 4 -5 0 -10
-5 -10 -11z"/>
<path d="M3650 5759 c0 -5 5 -7 10 -4 6 3 10 8 10 11 0 2 -4 4 -10 4 -5 0 -10
-5 -10 -11z"/>
<path d="M4765 5761 c-7 -13 7 -20 31 -17 10 2 25 -2 33 -8 12 -9 12 -8 0 11
-8 14 -16 18 -20 12 -5 -8 -9 -8 -13 0 -9 13 -23 14 -31 2z"/>
<path d="M2960 5750 c-12 -7 -10 -9 7 -7 12 0 19 5 17 9 -6 10 -6 10 -24 -2z"/>
<path d="M3280 5750 c-12 -7 -10 -9 7 -7 12 0 19 5 17 9 -6 10 -6 10 -24 -2z"/>
<path d="M3600 5750 c-12 -7 -10 -9 7 -7 12 0 19 5 17 9 -6 10 -6 10 -24 -2z"/>
<path d="M5547 5712 c3 -7 9 -10 12 -5 3 4 10 11 15 15 4 4 -1 6 -12 5 -12 -1
-18 -6 -15 -15z"/>
<path d="M5613 5716 c-3 -6 -3 -8 2 -4 4 4 13 3 20 -2 8 -7 12 -5 12 3 0 16
-25 18 -34 3z"/>
<path d="M2371 5683 c7 -12 15 -20 18 -17 3 2 -3 12 -13 22 -17 16 -18 16 -5
-5z"/>
<path d="M2413 5683 c1 -15 5 -19 13 -13 6 6 14 7 17 3 4 -3 7 -1 7 6 0 7 -6
11 -14 8 -8 -3 -17 -1 -19 6 -3 7 -4 2 -4 -10z"/>
<path d="M2753 5681 c0 -11 5 -18 9 -15 4 3 5 11 1 19 -7 21 -12 19 -10 -4z"/>
<path d="M3073 5681 c0 -11 5 -18 9 -15 4 3 5 11 1 19 -7 21 -12 19 -10 -4z"/>
<path d="M3393 5681 c0 -11 5 -18 9 -15 4 3 5 11 1 19 -7 21 -12 19 -10 -4z"/>
<path d="M3713 5681 c0 -11 5 -18 9 -15 4 3 5 11 1 19 -7 21 -12 19 -10 -4z"/>
<path d="M4092 5686 c7 -8 15 -12 17 -11 5 6 -10 25 -20 25 -5 0 -4 -6 3 -14z"/>
<path d="M4335 5689 c-11 -16 -1 -19 13 -3 7 8 8 14 3 14 -5 0 -13 -5 -16 -11z"/>
<path d="M4440 5696 c0 -2 7 -7 16 -10 8 -3 12 -2 9 4 -6 10 -25 14 -25 6z"/>
<path d="M4862 5680 c0 -14 2 -19 5 -12 2 6 2 18 0 25 -3 6 -5 1 -5 -13z"/>
<path d="M5057 5693 c-10 -10 -8 -23 4 -23 5 0 8 4 5 9 -4 5 0 12 6 14 7 3 8
6 2 6 -6 1 -14 -2 -17 -6z"/>
<path d="M5297 5693 c-10 -10 -8 -23 4 -23 5 0 8 4 5 9 -4 5 0 12 6 14 7 3 8
6 2 6 -6 1 -14 -2 -17 -6z"/>
<path d="M2466 5678 c3 -4 11 -5 19 -1 21 7 19 12 -4 10 -11 0 -18 -5 -15 -9z"/>
<path d="M2611 5673 c0 -11 3 -13 6 -5 2 6 10 9 15 6 7 -4 8 -2 4 4 -11 18
-26 14 -25 -5z"/>
<path d="M2816 5675 c4 -8 8 -15 10 -15 2 0 4 7 4 15 0 8 -4 15 -10 15 -5 0
-7 -7 -4 -15z"/>
<path d="M2851 5673 c0 -10 3 -13 5 -6 4 9 13 9 32 2 16 -6 23 -6 17 -1 -5 5
-20 13 -32 17 -18 5 -23 2 -22 -12z"/>
<path d="M3136 5675 c4 -8 8 -15 10 -15 2 0 4 7 4 15 0 8 -4 15 -10 15 -5 0
-7 -7 -4 -15z"/>
<path d="M3171 5673 c0 -10 3 -13 5 -6 4 9 13 9 32 2 16 -6 23 -6 17 -1 -5 5
-20 13 -32 17 -18 5 -23 2 -22 -12z"/>
<path d="M3456 5675 c4 -8 8 -15 10 -15 2 0 4 7 4 15 0 8 -4 15 -10 15 -5 0
-7 -7 -4 -15z"/>
<path d="M3491 5673 c0 -10 3 -13 5 -6 4 9 13 9 32 2 16 -6 23 -6 17 -1 -5 5
-20 13 -32 17 -18 5 -23 2 -22 -12z"/>
<path d="M3776 5675 c4 -8 8 -15 10 -15 2 0 4 7 4 15 0 8 -4 15 -10 15 -5 0
-7 -7 -4 -15z"/>
<path d="M3811 5673 c0 -10 3 -13 5 -6 3 7 13 9 22 6 15 -4 15 -3 2 6 -22 15
-30 14 -29 -6z"/>
<path d="M4026 5682 c-2 -4 4 -8 14 -8 10 0 16 4 14 8 -3 4 -9 8 -14 8 -5 0
-11 -4 -14 -8z"/>
<path d="M4668 5683 c7 -3 16 -2 19 1 4 3 -2 6 -13 5 -11 0 -14 -3 -6 -6z"/>
<path d="M4810 5680 c0 -5 5 -10 10 -10 6 0 10 5 10 10 0 6 -4 10 -10 10 -5 0
-10 -4 -10 -10z"/>
<path d="M5388 5683 c7 -3 16 -2 19 1 4 3 -2 6 -13 5 -11 0 -14 -3 -6 -6z"/>
<path d="M5468 5672 c-4 -12 1 -18 13 -18 12 0 15 4 9 12 -6 6 -7 14 -3 17 3
4 2 7 -4 7 -6 0 -13 -8 -15 -18z"/>
<path d="M2708 5673 c6 -2 18 -2 25 0 6 3 1 5 -13 5 -14 0 -19 -2 -12 -5z"/>
<path d="M3028 5673 c6 -2 18 -2 25 0 6 3 1 5 -13 5 -14 0 -19 -2 -12 -5z"/>
<path d="M3348 5673 c6 -2 18 -2 25 0 6 3 1 5 -13 5 -14 0 -19 -2 -12 -5z"/>
<path d="M3668 5673 c6 -2 18 -2 25 0 6 3 1 5 -13 5 -14 0 -19 -2 -12 -5z"/>
<path d="M4066 5664 c-5 -14 -4 -15 9 -4 17 14 19 20 6 20 -5 0 -12 -7 -15
-16z"/>
<path d="M4350 5676 c0 -2 9 -6 20 -9 11 -3 18 -1 14 4 -5 9 -34 13 -34 5z"/>
<path d="M4428 5673 c7 -3 16 -2 19 1 4 3 -2 6 -13 5 -11 0 -14 -3 -6 -6z"/>
<path d="M4786 5663 c-6 -14 -5 -15 5 -6 7 7 10 15 7 18 -3 3 -9 -2 -12 -12z"/>
<path d="M5080 5676 c0 -2 7 -7 16 -10 8 -3 12 -2 9 4 -6 10 -25 14 -25 6z"/>
<path d="M5320 5676 c0 -2 7 -7 16 -10 8 -3 12 -2 9 4 -6 10 -25 14 -25 6z"/>
<path d="M5430 5670 c-12 -8 -12 -10 -1 -10 10 0 11 -3 2 -13 -8 -10 -7 -14 2
-14 7 0 13 11 13 24 0 13 0 23 0 23 -1 0 -8 -5 -16 -10z"/>
<path d="M5513 5665 c0 -7 6 -11 14 -8 7 3 13 6 13 8 0 2 -6 5 -13 8 -8 3 -14
-1 -14 -8z"/>
<path d="M2653 5655 c0 -8 4 -12 9 -9 5 3 6 10 3 15 -9 13 -12 11 -12 -6z"/>
<path d="M2775 5661 c-3 -5 -2 -12 3 -15 5 -3 9 1 9 9 0 17 -3 19 -12 6z"/>
<path d="M3095 5661 c-3 -5 -2 -12 3 -15 5 -3 9 1 9 9 0 17 -3 19 -12 6z"/>
<path d="M3415 5661 c-3 -5 -2 -12 3 -15 5 -3 9 1 9 9 0 17 -3 19 -12 6z"/>
<path d="M3735 5661 c-3 -5 -2 -12 3 -15 5 -3 9 1 9 9 0 17 -3 19 -12 6z"/>
<path d="M3893 5655 c0 -8 4 -12 9 -9 5 3 6 10 3 15 -9 13 -12 11 -12 -6z"/>
<path d="M3953 5654 c0 -9 4 -11 12 -4 7 5 14 9 16 7 2 -1 3 0 1 2 -7 11 -29
7 -29 -5z"/>
<path d="M4115 5659 c-4 -6 -5 -12 -2 -15 2 -3 7 2 10 11 7 17 1 20 -8 4z"/>
<path d="M4454 5658 c-4 -7 -3 -8 4 -4 7 4 12 3 12 -2 0 -6 8 -13 17 -16 15
-6 15 -4 -2 14 -21 23 -22 24 -31 8z"/>
<path d="M4560 5666 c0 -2 7 -7 16 -10 8 -3 12 -2 9 4 -6 10 -25 14 -25 6z"/>
<path d="M4655 5661 c-3 -5 -2 -12 3 -15 5 -3 9 1 9 9 0 17 -3 19 -12 6z"/>
<path d="M4835 5661 c-3 -5 -2 -12 3 -15 5 -3 9 1 9 9 0 17 -3 19 -12 6z"/>
<path d="M5116 5655 c-9 -26 -7 -32 5 -12 6 10 9 21 6 23 -2 3 -7 -2 -11 -11z"/>
<path d="M1318 5653 c7 -3 16 -2 19 1 4 3 -2 6 -13 5 -11 0 -14 -3 -6 -6z"/>
<path d="M3932 5636 c1 -14 5 -23 9 -20 7 4 0 44 -7 44 -2 0 -3 -11 -2 -24z"/>
<path d="M5351 5647 c-8 -10 -7 -14 2 -14 8 0 14 6 14 14 0 7 -1 13 -2 13 -2
0 -8 -6 -14 -13z"/>
<path d="M2613 5631 c0 -11 5 -18 9 -15 4 3 5 11 1 19 -7 21 -12 19 -10 -4z"/>
<path d="M4395 5640 c3 -5 8 -10 11 -10 2 0 4 5 4 10 0 6 -5 10 -11 10 -5 0
-7 -4 -4 -10z"/>
<path d="M4550 5639 c0 -5 5 -7 10 -4 6 3 10 8 10 11 0 2 -4 4 -10 4 -5 0 -10
-5 -10 -11z"/>
<path d="M4857 5635 c-4 -8 -3 -16 1 -19 4 -3 9 4 9 15 2 23 -3 25 -10 4z"/>
<path d="M4934 5635 c3 -23 12 -26 13 -5 1 11 -2 20 -7 20 -4 0 -7 -7 -6 -15z"/>
<path d="M4966 5642 c-3 -5 1 -9 9 -9 8 0 15 4 15 9 0 4 -4 8 -9 8 -6 0 -12
-4 -15 -8z"/>
<path d="M2575 5631 c-3 -5 -2 -12 3 -15 5 -3 9 1 9 9 0 17 -3 19 -12 6z"/>
<path d="M4175 5631 c-3 -5 -2 -12 3 -15 5 -3 9 1 9 9 0 17 -3 19 -12 6z"/>
<path d="M5135 5631 c-3 -5 -2 -12 3 -15 5 -3 9 1 9 9 0 17 -3 19 -12 6z"/>
<path d="M2530 5620 c0 -5 5 -10 11 -10 5 0 7 5 4 10 -3 6 -8 10 -11 10 -2 0
-4 -4 -4 -10z"/>
<path d="M2695 5620 c3 -5 8 -10 11 -10 2 0 4 5 4 10 0 6 -5 10 -11 10 -5 0
-7 -4 -4 -10z"/>
<path d="M2735 5620 c3 -5 8 -10 11 -10 2 0 4 5 4 10 0 6 -5 10 -11 10 -5 0
-7 -4 -4 -10z"/>
<path d="M2770 5619 c0 -5 5 -7 10 -4 6 3 10 8 10 11 0 2 -4 4 -10 4 -5 0 -10
-5 -10 -11z"/>
<path d="M2815 5620 c3 -5 8 -10 11 -10 2 0 4 5 4 10 0 6 -5 10 -11 10 -5 0
-7 -4 -4 -10z"/>
<path d="M3015 5620 c3 -5 8 -10 11 -10 2 0 4 5 4 10 0 6 -5 10 -11 10 -5 0
-7 -4 -4 -10z"/>
<path d="M3055 5620 c3 -5 8 -10 11 -10 2 0 4 5 4 10 0 6 -5 10 -11 10 -5 0
-7 -4 -4 -10z"/>
<path d="M3090 5619 c0 -5 5 -7 10 -4 6 3 10 8 10 11 0 2 -4 4 -10 4 -5 0 -10
-5 -10 -11z"/>
<path d="M3135 5620 c3 -5 8 -10 11 -10 2 0 4 5 4 10 0 6 -5 10 -11 10 -5 0
-7 -4 -4 -10z"/>
<path d="M3335 5620 c3 -5 8 -10 11 -10 2 0 4 5 4 10 0 6 -5 10 -11 10 -5 0
-7 -4 -4 -10z"/>
<path d="M3375 5620 c3 -5 8 -10 11 -10 2 0 4 5 4 10 0 6 -5 10 -11 10 -5 0
-7 -4 -4 -10z"/>
<path d="M3410 5619 c0 -5 5 -7 10 -4 6 3 10 8 10 11 0 2 -4 4 -10 4 -5 0 -10
-5 -10 -11z"/>
<path d="M3455 5620 c3 -5 8 -10 11 -10 2 0 4 5 4 10 0 6 -5 10 -11 10 -5 0
-7 -4 -4 -10z"/>
<path d="M3655 5620 c3 -5 8 -10 11 -10 2 0 4 5 4 10 0 6 -5 10 -11 10 -5 0
-7 -4 -4 -10z"/>
<path d="M3695 5620 c3 -5 8 -10 11 -10 2 0 4 5 4 10 0 6 -5 10 -11 10 -5 0
-7 -4 -4 -10z"/>
<path d="M3730 5619 c0 -5 5 -7 10 -4 6 3 10 8 10 11 0 2 -4 4 -10 4 -5 0 -10
-5 -10 -11z"/>
<path d="M3775 5620 c3 -5 8 -10 11 -10 2 0 4 5 4 10 0 6 -5 10 -11 10 -5 0
-7 -4 -4 -10z"/>
<path d="M4095 5620 c3 -5 8 -10 11 -10 2 0 4 5 4 10 0 6 -5 10 -11 10 -5 0
-7 -4 -4 -10z"/>
<path d="M4695 5620 c3 -5 8 -10 11 -10 2 0 4 5 4 10 0 6 -5 10 -11 10 -5 0
-7 -4 -4 -10z"/>
<path d="M5595 5601 c-3 -5 -2 -12 3 -15 5 -3 9 1 9 9 0 17 -3 19 -12 6z"/>
<path d="M2371 5571 c-8 -5 -9 -11 -3 -15 5 -3 12 1 16 9 6 17 6 18 -13 6z"/>
<path d="M4470 5560 c0 -5 5 -10 11 -10 5 0 7 5 4 10 -3 6 -8 10 -11 10 -2 0
-4 -4 -4 -10z"/>
<path d="M1310 5521 c0 -6 4 -13 10 -16 6 -3 7 1 4 9 -7 18 -14 21 -14 7z"/>
<path d="M2375 5480 c3 -5 8 -10 11 -10 2 0 4 5 4 10 0 6 -5 10 -11 10 -5 0
-7 -4 -4 -10z"/>
<path d="M1325 5411 c-3 -5 -2 -12 3 -15 5 -3 9 1 9 9 0 17 -3 19 -12 6z"/>
<path d="M2390 5399 c0 -5 5 -7 10 -4 6 3 10 8 10 11 0 2 -4 4 -10 4 -5 0 -10
-5 -10 -11z"/>
<path d="M2375 5320 c-4 -6 -1 -9 7 -8 7 2 12 -3 10 -10 -1 -8 2 -11 8 -7 8 5
7 11 -1 21 -14 17 -16 17 -24 4z"/>
<path d="M2365 5280 c6 -30 16 -40 12 -12 -2 12 -6 24 -10 28 -3 4 -4 -4 -2
-16z"/>
<path d="M2360 5215 c0 -2 6 -8 13 -14 10 -8 14 -7 14 2 0 8 -6 14 -14 14 -7
0 -13 -1 -13 -2z"/>
<path d="M1322 5171 c-11 -7 -11 -9 0 -14 9 -3 15 1 15 9 0 8 -1 14 -1 14 -1
0 -7 -4 -14 -9z"/>
<path d="M2373 5173 c-15 -5 -17 -23 -4 -23 5 0 11 7 15 15 3 8 4 15 3 14 -1
0 -8 -3 -14 -6z"/>
<path d="M1316 5125 c4 -8 8 -15 10 -15 2 0 4 7 4 15 0 8 -4 15 -10 15 -5 0
-7 -7 -4 -15z"/>
<path d="M2360 5135 c0 -2 6 -8 13 -14 10 -8 14 -7 14 2 0 8 -6 14 -14 14 -7
0 -13 -1 -13 -2z"/>
<path d="M1293 5105 c0 -8 4 -12 9 -9 5 3 6 10 3 15 -9 13 -12 11 -12 -6z"/>
<path d="M1318 5033 c7 -3 16 -2 19 1 4 3 -2 6 -13 5 -11 0 -14 -3 -6 -6z"/>
<path d="M1303 4999 c9 -6 15 -14 12 -20 -4 -5 -1 -9 4 -9 6 0 11 4 11 8 0 12
-22 32 -34 32 -6 0 -3 -5 7 -11z"/>
<path d="M2389 4977 c6 -8 7 -18 3 -22 -4 -5 -1 -5 6 -1 10 6 10 11 1 22 -6 8
-14 14 -16 14 -3 0 0 -6 6 -13z"/>
<path d="M1316 4885 c4 -8 8 -15 10 -15 2 0 4 7 4 15 0 8 -4 15 -10 15 -5 0
-7 -7 -4 -15z"/>
<path d="M1293 4865 c0 -8 4 -12 9 -9 5 3 6 10 3 15 -9 13 -12 11 -12 -6z"/>
<path d="M5050 4800 c0 -5 5 -10 11 -10 5 0 7 5 4 10 -3 6 -8 10 -11 10 -2 0
-4 -4 -4 -10z"/>
<path d="M5104 4802 c4 -3 14 -7 22 -8 9 -1 13 0 10 4 -4 3 -14 7 -22 8 -9 1
-13 0 -10 -4z"/>
<path d="M1318 4793 c7 -3 16 -2 19 1 4 3 -2 6 -13 5 -11 0 -14 -3 -6 -6z"/>
<path d="M4990 4771 c0 -5 5 -13 10 -16 6 -3 10 -2 10 4 0 5 -4 13 -10 16 -5
3 -10 2 -10 -4z"/>
<path d="M1303 4759 c9 -6 15 -14 12 -20 -4 -5 -1 -9 4 -9 6 0 11 4 11 8 0 12
-22 32 -34 32 -6 0 -3 -5 7 -11z"/>
<path d="M5110 4741 c0 -6 4 -12 8 -15 5 -3 9 1 9 9 0 8 -4 15 -9 15 -4 0 -8
-4 -8 -9z"/>
<path d="M5146 4738 c3 -5 10 -6 15 -3 13 9 11 12 -6 12 -8 0 -12 -4 -9 -9z"/>
<path d="M5150 4660 c0 -4 7 -7 15 -6 23 3 26 12 5 13 -11 1 -20 -2 -20 -7z"/>
<path d="M1316 4645 c4 -8 8 -15 10 -15 2 0 4 7 4 15 0 8 -4 15 -10 15 -5 0
-7 -7 -4 -15z"/>
<path d="M5130 4651 c0 -7 -4 -9 -10 -6 -5 3 -10 1 -10 -4 0 -6 4 -11 9 -11
13 0 25 20 17 27 -3 4 -6 1 -6 -6z"/>
<path d="M1293 4625 c0 -8 4 -12 9 -9 5 3 6 10 3 15 -9 13 -12 11 -12 -6z"/>
<path d="M5133 4617 c-3 -4 -2 -11 1 -14 3 -4 6 -1 6 5 0 6 6 9 14 6 8 -3 16
-2 19 3 3 5 -3 9 -14 9 -11 0 -23 -4 -26 -9z"/>
<path d="M5046 4581 c-3 -4 0 -16 7 -25 12 -16 13 -15 13 8 0 26 -10 34 -20
17z"/>
<path d="M5140 4560 c0 -5 7 -7 15 -4 8 4 15 8 15 10 0 2 -7 4 -15 4 -8 0 -15
-4 -15 -10z"/>
<path d="M1318 4553 c7 -3 16 -2 19 1 4 3 -2 6 -13 5 -11 0 -14 -3 -6 -6z"/>
<path d="M1303 4519 c9 -6 15 -14 12 -20 -4 -5 -1 -9 4 -9 6 0 11 4 11 8 0 12
-22 32 -34 32 -6 0 -3 -5 7 -11z"/>
<path d="M5134 4495 c-4 -8 -10 -12 -15 -9 -5 3 -9 0 -9 -5 0 -16 20 -13 26 4
4 8 11 12 17 8 6 -3 7 -1 3 5 -10 16 -15 15 -22 -3z"/>
<path d="M5133 4457 c-3 -5 0 -14 6 -20 9 -9 11 -8 5 6 -4 13 -2 16 9 11 8 -3
17 -2 20 3 3 5 -3 9 -14 9 -11 0 -23 -4 -26 -9z"/>
<path d="M5046 4421 c-3 -4 0 -16 7 -25 12 -16 13 -15 13 8 0 26 -10 34 -20
17z"/>
<path d="M1316 4405 c4 -8 8 -15 10 -15 2 0 4 7 4 15 0 8 -4 15 -10 15 -5 0
-7 -7 -4 -15z"/>
<path d="M5150 4410 c-8 -5 -12 -12 -9 -15 4 -3 12 1 19 10 14 17 11 19 -10 5z"/>
<path d="M1293 4385 c0 -8 4 -12 9 -9 5 3 6 10 3 15 -9 13 -12 11 -12 -6z"/>
<path d="M5166 4358 c3 -5 10 -6 15 -3 13 9 11 12 -6 12 -8 0 -12 -4 -9 -9z"/>
<path d="M5135 4339 c-4 -6 -4 -13 -1 -16 3 -4 6 -1 6 6 0 7 5 9 12 5 7 -4 8
-3 4 4 -9 15 -13 15 -21 1z"/>
<path d="M1318 4313 c7 -3 16 -2 19 1 4 3 -2 6 -13 5 -11 0 -14 -3 -6 -6z"/>
<path d="M5159 4293 c-12 -16 -12 -17 2 -6 9 7 20 9 24 5 5 -4 5 -1 1 6 -9 16
-11 15 -27 -5z"/>
<path d="M1303 4279 c9 -6 15 -14 12 -20 -4 -5 -1 -9 4 -9 6 0 11 4 11 8 0 12
-22 32 -34 32 -6 0 -3 -5 7 -11z"/>
<path d="M5046 4261 c-3 -4 0 -16 7 -25 12 -16 13 -15 13 8 0 26 -10 34 -20
17z"/>
<path d="M5140 4240 c0 -5 7 -7 15 -4 8 4 15 8 15 10 0 2 -7 4 -15 4 -8 0 -15
-4 -15 -10z"/>
<path d="M5134 4175 c-4 -8 -10 -12 -15 -9 -5 3 -9 0 -9 -5 0 -16 20 -13 26 4
4 8 11 12 17 8 6 -3 7 -1 3 5 -10 16 -15 15 -22 -3z"/>
<path d="M1316 4165 c4 -8 8 -15 10 -15 2 0 4 7 4 15 0 8 -4 15 -10 15 -5 0
-7 -7 -4 -15z"/>
<path d="M1293 4145 c0 -8 4 -12 9 -9 5 3 6 10 3 15 -9 13 -12 11 -12 -6z"/>
<path d="M5133 4137 c-3 -5 0 -14 6 -20 9 -9 11 -8 5 6 -4 13 -2 16 9 11 8 -3
17 -2 20 3 3 5 -3 9 -14 9 -11 0 -23 -4 -26 -9z"/>
<path d="M5046 4101 c-3 -4 0 -16 7 -25 12 -16 13 -15 13 8 0 26 -10 34 -20
17z"/>
<path d="M5150 4090 c-8 -5 -12 -12 -9 -15 4 -3 12 1 19 10 14 17 11 19 -10 5z"/>
<path d="M1318 4073 c7 -3 16 -2 19 1 4 3 -2 6 -13 5 -11 0 -14 -3 -6 -6z"/>
<path d="M1303 4039 c9 -6 15 -14 12 -20 -4 -5 -1 -9 4 -9 6 0 11 4 11 8 0 12
-22 32 -34 32 -6 0 -3 -5 7 -11z"/>
<path d="M5166 4038 c3 -5 10 -6 15 -3 13 9 11 12 -6 12 -8 0 -12 -4 -9 -9z"/>
<path d="M5135 4019 c-4 -6 -4 -13 -1 -17 11 -10 36 -11 36 0 0 6 -7 7 -16 4
-12 -4 -15 -2 -10 9 6 17 0 20 -9 4z"/>
<path d="M5042 4009 c-12 -5 -22 -14 -22 -20 0 -9 3 -9 14 0 10 9 16 8 26 -4
10 -12 10 -15 -1 -15 -8 0 -6 -6 7 -16 10 -8 13 -12 6 -9 -8 4 -25 -4 -42 -20
-16 -15 -33 -24 -39 -21 -6 4 -11 3 -11 -3 0 -13 -55 -42 -64 -34 -3 4 -6 1
-6 -5 0 -7 7 -12 15 -12 8 0 15 -6 15 -12 0 -9 3 -8 9 2 6 8 7 18 5 22 -3 4
-1 8 5 8 5 0 11 -5 13 -11 5 -14 78 17 78 33 0 5 5 6 10 3 8 -5 7 -12 -2 -23
-12 -15 -11 -16 5 -3 16 12 16 16 2 31 -15 16 -11 30 7 30 5 0 6 -4 3 -10 -3
-6 1 -7 10 -3 10 3 12 8 7 12 -6 4 -3 15 8 28 9 12 20 19 24 16 3 -4 6 -1 6 5
0 6 -12 9 -30 7 -17 -2 -28 0 -24 6 3 5 10 7 15 4 5 -4 9 -2 9 3 0 14 -33 20
-58 11z m52 -50 c-3 -5 -10 -7 -15 -3 -5 3 -7 10 -3 15 3 5 10 7 15 3 5 -3 7
-10 3 -15z m-43 -32 c-6 -8 -9 -16 -6 -19 7 -7 -27 -36 -47 -40 -9 -1 -17 2
-16 7 0 6 3 9 8 8 4 -1 20 11 35 27 29 30 47 41 26 17z"/>
<path d="M5019 3893 c-13 -16 -12 -17 4 -4 16 13 21 21 13 21 -2 0 -10 -8 -17
-17z"/>
<path d="M5135 3959 c-4 -6 -5 -12 -2 -15 2 -3 7 2 10 11 7 17 1 20 -8 4z"/>
<path d="M5113 3931 c0 -11 5 -18 9 -15 4 3 5 11 1 19 -7 21 -12 19 -10 -4z"/>
<path d="M1316 3925 c4 -8 8 -15 10 -15 2 0 4 7 4 15 0 8 -4 15 -10 15 -5 0
-7 -7 -4 -15z"/>
<path d="M1293 3905 c0 -8 4 -12 9 -9 5 3 6 10 3 15 -9 13 -12 11 -12 -6z"/>
<path d="M5090 3900 c0 -5 5 -10 11 -10 5 0 7 5 4 10 -3 6 -8 10 -11 10 -2 0
-4 -4 -4 -10z"/>
<path d="M2364 3851 c4 -6 15 -15 25 -20 13 -7 18 -6 18 5 0 7 -2 12 -5 9 -3
-2 -14 0 -25 6 -14 8 -18 8 -13 0z"/>
<path d="M2430 3853 c8 -4 20 -13 25 -20 9 -12 11 -11 11 4 0 13 -8 19 -26 20
-14 1 -18 -1 -10 -4z"/>
<path d="M2516 3843 c21 -16 31 -16 39 -3 7 12 25 4 25 -11 0 -6 -4 -8 -9 -4
-5 3 -12 2 -15 -3 -3 -5 2 -9 11 -9 9 0 18 9 21 20 4 15 7 16 14 5 8 -11 9
-10 6 1 -5 16 -46 23 -54 9 -3 -4 -10 -8 -15 -8 -6 0 -8 4 -5 8 2 4 -4 8 -15
8 -19 0 -19 -1 -3 -13z"/>
<path d="M2749 3853 c-1 -5 -1 -11 0 -15 2 -12 -17 -10 -22 2 -3 6 -4 5 -3 -2
2 -8 19 -13 44 -14 l40 -1 -23 19 c-25 19 -34 22 -36 11z m21 -13 c0 -5 -2
-10 -4 -10 -3 0 -8 5 -11 10 -3 6 -1 10 4 10 6 0 11 -4 11 -10z"/>
<path d="M4664 3848 c-5 -8 -2 -9 10 -5 13 5 17 3 13 -5 -3 -8 5 -14 19 -14
l24 -2 -24 19 c-28 22 -32 23 -42 7z"/>
<path d="M2620 3840 c0 -5 5 -10 11 -10 5 0 7 5 4 10 -3 6 -8 10 -11 10 -2 0
-4 -4 -4 -10z"/>
<path d="M2654 3824 c3 -14 8 -29 12 -33 4 -3 4 2 1 11 -3 9 -2 18 3 20 4 2 2
9 -6 16 -13 11 -14 9 -10 -14z"/>
<path d="M5000 3840 c-9 -6 -10 -10 -3 -10 6 0 15 5 18 10 8 12 4 12 -15 0z"/>
<path d="M1318 3833 c7 -3 16 -2 19 1 4 3 -2 6 -13 5 -11 0 -14 -3 -6 -6z"/>
<path d="M4765 3829 c-4 -6 -5 -12 -2 -15 2 -3 7 2 10 11 7 17 1 20 -8 4z"/>
<path d="M2363 3809 c-1 -10 3 -19 8 -19 6 0 8 -4 4 -9 -3 -5 -1 -12 4 -15 10
-7 9 13 -2 31 -4 6 -2 13 5 15 8 3 7 6 -3 10 -10 4 -15 -1 -16 -13z"/>
<path d="M2427 3819 c7 -7 15 -10 18 -7 3 3 -2 9 -12 12 -14 6 -15 5 -6 -5z"/>
<path d="M3710 3820 c0 -5 5 -10 11 -10 5 0 7 5 4 10 -3 6 -8 10 -11 10 -2 0
-4 -4 -4 -10z"/>
<path d="M4475 3821 c-3 -5 -2 -12 3 -15 5 -3 9 1 9 9 0 17 -3 19 -12 6z"/>
<path d="M4790 3820 c0 -5 5 -10 11 -10 5 0 7 5 4 10 -3 6 -8 10 -11 10 -2 0
-4 -4 -4 -10z"/>
<path d="M2856 3807 c3 -10 9 -15 12 -12 3 3 0 11 -7 18 -10 9 -11 8 -5 -6z"/>
<path d="M4536 3807 c3 -10 9 -15 12 -12 3 3 0 11 -7 18 -10 9 -11 8 -5 -6z"/>
<path d="M1303 3799 c9 -6 15 -14 12 -20 -4 -5 -1 -9 4 -9 6 0 11 4 11 8 0 12
-22 32 -34 32 -6 0 -3 -5 7 -11z"/>
<path d="M3286 3798 c3 -5 10 -6 15 -3 13 9 11 12 -6 12 -8 0 -12 -4 -9 -9z"/>
<path d="M3526 3798 c3 -5 10 -6 15 -3 13 9 11 12 -6 12 -8 0 -12 -4 -9 -9z"/>
<path d="M4630 3806 c0 -2 7 -7 16 -10 8 -3 12 -2 9 4 -6 10 -25 14 -25 6z"/>
<path d="M2370 3720 c-9 -6 -10 -10 -3 -10 6 0 15 5 18 10 8 12 4 12 -15 0z"/>
<path d="M1316 3685 c4 -8 8 -15 10 -15 2 0 4 7 4 15 0 8 -4 15 -10 15 -5 0
-7 -7 -4 -15z"/>
<path d="M2360 3695 c0 -2 6 -8 13 -14 10 -8 14 -7 14 2 0 8 -6 14 -14 14 -7
0 -13 -1 -13 -2z"/>
<path d="M1293 3665 c0 -8 4 -12 9 -9 5 3 6 10 3 15 -9 13 -12 11 -12 -6z"/>
<path d="M1318 3593 c7 -3 16 -2 19 1 4 3 -2 6 -13 5 -11 0 -14 -3 -6 -6z"/>
<path d="M2387 3579 c7 -7 15 -10 18 -7 3 3 -2 9 -12 12 -14 6 -15 5 -6 -5z"/>
<path d="M1303 3559 c9 -6 15 -14 12 -20 -4 -5 -1 -9 4 -9 6 0 11 4 11 8 0 12
-22 32 -34 32 -6 0 -3 -5 7 -11z"/>
<path d="M1316 3445 c4 -8 8 -15 10 -15 2 0 4 7 4 15 0 8 -4 15 -10 15 -5 0
-7 -7 -4 -15z"/>
<path d="M1293 3425 c0 -8 4 -12 9 -9 5 3 6 10 3 15 -9 13 -12 11 -12 -6z"/>
<path d="M2366 3362 c-2 -4 -1 -14 4 -22 7 -11 9 -9 7 8 -1 24 -3 26 -11 14z"/>
<path d="M1318 3353 c7 -3 16 -2 19 1 4 3 -2 6 -13 5 -11 0 -14 -3 -6 -6z"/>
<path d="M1303 3319 c9 -6 15 -14 12 -20 -4 -5 -1 -9 4 -9 6 0 11 4 11 8 0 12
-22 32 -34 32 -6 0 -3 -5 7 -11z"/>
<path d="M2360 3295 c0 -2 6 -8 13 -14 10 -8 14 -7 14 2 0 8 -6 14 -14 14 -7
0 -13 -1 -13 -2z"/>
<path d="M2373 3253 c-15 -5 -17 -23 -4 -23 5 0 11 7 15 15 3 8 4 15 3 14 -1
0 -8 -3 -14 -6z"/>
<path d="M1316 3205 c4 -8 8 -15 10 -15 2 0 4 7 4 15 0 8 -4 15 -10 15 -5 0
-7 -7 -4 -15z"/>
<path d="M2360 3215 c0 -2 6 -8 13 -14 10 -8 14 -7 14 2 0 8 -6 14 -14 14 -7
0 -13 -1 -13 -2z"/>
<path d="M1293 3185 c0 -8 4 -12 9 -9 5 3 6 10 3 15 -9 13 -12 11 -12 -6z"/>
<path d="M1326 3022 c-2 -4 -1 -14 4 -22 7 -11 9 -9 7 8 -1 24 -3 26 -11 14z"/>
<path d="M2371 2927 c2 -1 13 -9 24 -17 19 -14 19 -14 6 3 -7 9 -18 17 -24 17
-6 0 -8 -1 -6 -3z"/>
<path d="M2376 2878 c3 -5 10 -6 15 -3 13 9 11 12 -6 12 -8 0 -12 -4 -9 -9z"/>
<path d="M1326 2862 c-2 -4 -1 -14 4 -22 7 -11 9 -9 7 8 -1 24 -3 26 -11 14z"/>
<path d="M2370 2840 c-8 -5 -10 -10 -5 -10 6 0 17 5 25 10 8 5 11 10 5 10 -5
0 -17 -5 -25 -10z"/>
<path d="M2360 2815 c0 -2 6 -8 13 -14 10 -8 14 -7 14 2 0 8 -6 14 -14 14 -7
0 -13 -1 -13 -2z"/>
<path d="M2373 2773 c-15 -5 -17 -23 -4 -23 5 0 11 7 15 15 3 8 4 15 3 14 -1
0 -8 -3 -14 -6z"/>
<path d="M2360 2735 c0 -2 6 -8 13 -14 10 -8 14 -7 14 2 0 8 -6 14 -14 14 -7
0 -13 -1 -13 -2z"/>
<path d="M1326 2702 c-2 -4 -1 -14 4 -22 7 -11 9 -9 7 8 -1 24 -3 26 -11 14z"/>
<path d="M2387 2619 c7 -7 15 -10 18 -7 3 3 -2 9 -12 12 -14 6 -15 5 -6 -5z"/>
<path d="M1326 2542 c-2 -4 -1 -14 4 -22 7 -11 9 -9 7 8 -1 24 -3 26 -11 14z"/>
<path d="M2366 2402 c-2 -4 -1 -14 4 -22 7 -11 9 -9 7 8 -1 24 -3 26 -11 14z"/>
<path d="M1326 2382 c-2 -4 -1 -14 4 -22 7 -11 9 -9 7 8 -1 24 -3 26 -11 14z"/>
<path d="M2360 2335 c0 -2 6 -8 13 -14 10 -8 14 -7 14 2 0 8 -6 14 -14 14 -7
0 -13 -1 -13 -2z"/>
<path d="M2373 2293 c-15 -5 -17 -23 -4 -23 5 0 11 7 15 15 3 8 4 15 3 14 -1
0 -8 -3 -14 -6z"/>
<path d="M2360 2255 c0 -2 6 -8 13 -14 10 -8 14 -7 14 2 0 8 -6 14 -14 14 -7
0 -13 -1 -13 -2z"/>
<path d="M1325 2221 c-3 -5 -2 -12 3 -15 5 -3 9 1 9 9 0 17 -3 19 -12 6z"/>
<path d="M1296 2202 c-3 -5 1 -9 9 -9 8 0 12 4 9 9 -3 4 -7 8 -9 8 -2 0 -6 -4
-9 -8z"/>
<path d="M2370 2120 c0 -5 5 -10 10 -10 6 0 10 5 10 10 0 6 -4 10 -10 10 -5 0
-10 -4 -10 -10z"/>
<path d="M1311 2104 c-1 -6 5 -17 12 -23 10 -8 14 -7 14 4 0 8 -4 12 -8 9 -4
-2 -10 2 -12 8 -4 8 -6 9 -6 2z"/>
<path d="M2374 2059 c-3 -6 -1 -16 5 -22 9 -9 10 -7 5 7 -6 15 -4 17 6 11 9
-5 11 -4 6 3 -9 15 -13 15 -22 1z"/>
<path d="M1320 2046 c0 -8 4 -17 9 -20 5 -4 7 3 4 14 -6 23 -13 26 -13 6z"/>
<path d="M2387 1999 c7 -7 15 -10 18 -7 3 3 -2 9 -12 12 -14 6 -15 5 -6 -5z"/>
<path d="M1320 1970 c6 -11 13 -20 16 -20 2 0 0 9 -6 20 -6 11 -13 20 -16 20
-2 0 0 -9 6 -20z"/>
<path d="M2393 1935 c0 -8 4 -12 9 -9 5 3 6 10 3 15 -9 13 -12 11 -12 -6z"/>
<path d="M2370 1916 c0 -8 4 -17 9 -20 5 -4 7 3 4 14 -6 23 -13 26 -13 6z"/>
<path d="M1300 1880 c-9 -6 -10 -10 -3 -10 6 0 15 5 18 10 8 12 4 12 -15 0z"/>
<path d="M2371 1873 c7 -12 15 -20 18 -17 3 2 -3 12 -13 22 -17 16 -18 16 -5
-5z"/>
<path d="M1320 1751 c0 -6 4 -13 10 -16 6 -3 7 1 4 9 -7 18 -14 21 -14 7z"/>
<path d="M2366 1738 c3 -5 10 -6 15 -3 13 9 11 12 -6 12 -8 0 -12 -4 -9 -9z"/>
<path d="M1310 1721 c0 -6 4 -13 10 -16 6 -3 7 1 4 9 -7 18 -14 21 -14 7z"/>
<path d="M2345 1500 c-3 -6 1 -7 9 -4 18 7 21 14 7 14 -6 0 -13 -4 -16 -10z"/>
<path d="M1348 1493 c6 -2 9 -10 6 -15 -4 -7 -2 -8 5 -4 13 9 5 26 -12 25 -9
0 -8 -2 1 -6z"/>
<path d="M1330 1460 c0 -5 5 -10 11 -10 5 0 7 5 4 10 -3 6 -8 10 -11 10 -2 0
-4 -4 -4 -10z"/>
<path d="M2335 1451 c4 -15 2 -20 -7 -18 -7 2 -9 2 -4 -1 4 -2 2 -8 -5 -13
-12 -7 -11 -9 1 -9 12 0 12 -2 2 -9 -11 -7 -10 -9 3 -14 9 -4 13 -3 10 3 -9
14 7 12 27 -4 10 -7 14 -17 10 -21 -4 -5 -1 -5 7 0 12 7 11 10 -2 20 -9 7 -13
15 -9 19 4 4 3 7 -3 6 -21 -5 -36 0 -30 10 4 6 10 8 15 5 4 -3 6 4 3 15 -3 11
-10 23 -15 26 -6 4 -8 -2 -3 -15z"/>
<path d="M1335 1430 c-3 -6 1 -7 9 -4 18 7 21 14 7 14 -6 0 -13 -4 -16 -10z"/>
<path d="M1285 1420 c-3 -6 1 -7 9 -4 18 7 21 14 7 14 -6 0 -13 -4 -16 -10z"/>
<path d="M1336 1397 c5 -14 2 -16 -12 -11 -16 5 -16 4 -4 -5 20 -14 39 4 21
22 -10 10 -11 9 -5 -6z"/>
<path d="M1339 1313 c-8 -9 -9 -14 -2 -10 6 4 13 1 16 -5 2 -8 8 -9 13 -4 5 5
4 11 -4 13 -6 3 -10 9 -6 14 9 15 -3 10 -17 -8z"/>
<path d="M1270 1317 c0 -2 6 -10 14 -16 11 -9 16 -9 22 1 4 7 4 10 -1 6 -4 -4
-14 -3 -22 3 -7 6 -13 9 -13 6z"/>
<path d="M2350 1300 c0 -5 5 -10 11 -10 5 0 7 5 4 10 -3 6 -8 10 -11 10 -2 0
-4 -4 -4 -10z"/>
<path d="M1330 1280 c0 -5 5 -10 11 -10 5 0 7 5 4 10 -3 6 -8 10 -11 10 -2 0
-4 -4 -4 -10z"/>
<path d="M2373 1245 c0 -8 4 -15 9 -15 4 0 8 4 8 9 0 6 -4 12 -8 15 -5 3 -9
-1 -9 -9z"/>
<path d="M1383 1235 c0 -8 4 -12 9 -9 5 3 6 10 3 15 -9 13 -12 11 -12 -6z"/>
<path d="M2353 1135 c0 -8 4 -12 9 -9 5 3 6 10 3 15 -9 13 -12 11 -12 -6z"/>
<path d="M1355 1111 c-3 -5 -2 -12 3 -15 5 -3 9 1 9 9 0 17 -3 19 -12 6z"/>
<path d="M2300 999 c0 -5 5 -7 10 -4 6 3 10 8 10 11 0 2 -4 4 -10 4 -5 0 -10
-5 -10 -11z"/>
<path d="M1416 963 c-6 -14 -5 -15 5 -6 7 7 10 15 7 18 -3 3 -9 -2 -12 -12z"/>
<path d="M2291 971 c-8 -5 -9 -11 -3 -15 5 -3 12 1 16 9 6 17 6 18 -13 6z"/>
<path d="M2233 915 c0 -8 4 -15 9 -15 4 0 8 4 8 9 0 6 -4 12 -8 15 -5 3 -9 -1
-9 -9z"/>
<path d="M1440 880 c-9 -6 -10 -10 -3 -10 6 0 15 5 18 10 8 12 4 12 -15 0z"/>
<path d="M2267 859 c7 -7 15 -10 18 -7 3 3 -2 9 -12 12 -14 6 -15 5 -6 -5z"/>
<path d="M2250 819 c0 -5 5 -7 10 -4 6 3 10 8 10 11 0 2 -4 4 -10 4 -5 0 -10
-5 -10 -11z"/>
<path d="M1475 791 c0 -16 3 -27 6 -25 9 5 8 54 0 54 -4 0 -7 -13 -6 -29z"/>
<path d="M2210 806 c0 -2 7 -7 16 -10 8 -3 12 -2 9 4 -6 10 -25 14 -25 6z"/>
<path d="M2213 755 c0 -8 4 -12 9 -9 4 3 8 9 8 15 0 5 -4 9 -8 9 -5 0 -9 -7
-9 -15z"/>
<path d="M1506 701 c-4 -5 3 -7 14 -4 23 6 26 13 6 13 -8 0 -17 -4 -20 -9z"/>
<path d="M1530 680 c0 -5 5 -10 10 -10 6 0 10 5 10 10 0 6 -4 10 -10 10 -5 0
-10 -4 -10 -10z"/>
<path d="M1500 666 c0 -2 8 -10 18 -17 15 -13 16 -12 3 4 -13 16 -21 21 -21
13z"/>
<path d="M2175 660 c-3 -5 -1 -10 4 -10 6 0 11 5 11 10 0 6 -2 10 -4 10 -3 0
-8 -4 -11 -10z"/>
<path d="M1596 633 c-4 -9 -3 -20 2 -25 4 -4 9 4 10 17 2 29 -3 32 -12 8z"/>
<path d="M1598 569 c-10 -5 -18 -15 -18 -22 0 -8 3 -8 9 2 5 8 11 9 15 3 3 -5
-1 -15 -9 -22 -8 -7 -15 -17 -15 -23 0 -18 34 35 35 55 1 10 1 18 1 18 -1 0
-9 -5 -18 -11z"/>
<path d="M2147 539 c7 -7 15 -10 18 -7 3 3 -2 9 -12 12 -14 6 -15 5 -6 -5z"/>
<path d="M2135 509 c-4 -6 -5 -12 -2 -15 2 -3 7 2 10 11 7 17 1 20 -8 4z"/>
<path d="M2100 479 c0 -5 5 -7 10 -4 6 3 10 8 10 11 0 2 -4 4 -10 4 -5 0 -10
-5 -10 -11z"/>
<path d="M1570 459 c0 -5 5 -7 10 -4 6 3 10 8 10 11 0 2 -4 4 -10 4 -5 0 -10
-5 -10 -11z"/>
<path d="M2034 444 c3 -6 -7 -29 -23 -50 -28 -40 -36 -91 -13 -86 6 1 12 -2
12 -8 0 -5 -4 -10 -10 -10 -5 0 -10 -4 -10 -10 0 -21 18 -9 30 20 7 17 16 30
21 30 5 0 9 5 9 10 0 18 -18 10 -25 -10 -4 -11 -10 -18 -15 -15 -5 3 -4 16 2
30 6 13 15 22 19 19 5 -3 6 2 3 10 -8 21 5 20 23 -1 13 -16 13 -16 3 5 -12 25
-6 43 13 38 7 -1 9 -1 5 1 -4 3 -10 3 -12 1 -3 -2 -12 6 -21 17 -9 11 -14 15
-11 9z m16 -28 c0 -2 -8 -10 -17 -17 -16 -13 -17 -12 -4 4 13 16 21 21 21 13z
m-37 -51 c-3 -9 -8 -14 -10 -11 -3 3 -2 9 2 15 9 16 15 13 8 -4z"/>
<path d="M1641 353 c-1 -17 16 -25 25 -12 4 7 3 9 -4 5 -5 -3 -13 0 -15 6 -4
9 -6 10 -6 1z"/>
<path d="M2050 299 c0 -5 5 -7 10 -4 6 3 10 8 10 11 0 2 -4 4 -10 4 -5 0 -10
-5 -10 -11z"/>
<path d="M1682 284 c10 -10 20 -15 24 -12 3 4 -5 12 -18 18 -22 12 -22 12 -6
-6z"/>
<path d="M2016 262 c-3 -5 1 -9 9 -9 8 0 12 4 9 9 -3 4 -7 8 -9 8 -2 0 -6 -4
-9 -8z"/>
<path d="M1750 238 c0 -4 4 -8 9 -8 6 0 12 4 15 8 3 5 -1 9 -9 9 -8 0 -15 -4
-15 -9z"/>
<path d="M1939 225 c-1 -3 -2 -9 -3 -15 0 -5 -10 -15 -20 -23 -13 -9 -15 -16
-8 -21 6 -4 9 -14 6 -24 -5 -13 -4 -14 4 -3 5 7 16 18 23 23 11 8 10 9 -3 4
-10 -3 -20 -1 -23 3 -8 15 25 22 48 10 20 -9 20 -9 5 4 -21 16 -24 32 -5 21 8
-5 8 -2 -2 9 -14 17 -20 21 -22 12z"/>
<path d="M1695 180 c3 -5 8 -10 11 -10 2 0 4 5 4 10 0 6 -5 10 -11 10 -5 0 -7
-4 -4 -10z"/>
<path d="M2015 180 c3 -5 8 -10 11 -10 2 0 4 5 4 10 0 6 -5 10 -11 10 -5 0 -7
-4 -4 -10z"/>
<path d="M1944 144 c-18 -14 -18 -15 4 -4 12 6 22 13 22 15 0 8 -5 6 -26 -11z"/>
<path d="M1837 95 c-4 -8 -3 -16 1 -19 4 -3 9 4 9 15 2 23 -3 25 -10 4z"/>
<path d="M1880 80 c-9 -6 -10 -10 -3 -10 6 0 15 5 18 10 8 12 4 12 -15 0z"/>
<path d="M1910 80 c0 -5 5 -10 11 -10 5 0 7 5 4 10 -3 6 -8 10 -11 10 -2 0 -4
-4 -4 -10z"/>
</g>
</svg>
